<?xml version="1.0" encoding="utf-8" standalone="no"?>
<!DOCTYPE svg PUBLIC "-//W3C//DTD SVG 1.1//EN"
  "http://www.w3.org/Graphics/SVG/1.1/DTD/svg11.dtd">
<svg xmlns:xlink="http://www.w3.org/1999/xlink" width="460.8pt" height="345.6pt" viewBox="0 0 460.8 345.6" xmlns="http://www.w3.org/2000/svg" version="1.1">
 <metadata>
  <rdf:RDF xmlns:dc="http://purl.org/dc/elements/1.1/" xmlns:cc="http://creativecommons.org/ns#" xmlns:rdf="http://www.w3.org/1999/02/22-rdf-syntax-ns#">
   <cc:Work>
    <dc:type rdf:resource="http://purl.org/dc/dcmitype/StillImage"/>
    <dc:date>2024-06-21T12:55:07.916306</dc:date>
    <dc:format>image/svg+xml</dc:format>
    <dc:creator>
     <cc:Agent>
      <dc:title>Matplotlib v3.6.2, https://matplotlib.org/</dc:title>
     </cc:Agent>
    </dc:creator>
   </cc:Work>
  </rdf:RDF>
 </metadata>
 <defs>
  <style type="text/css">*{stroke-linejoin: round; stroke-linecap: butt}</style>
 </defs>
 <g id="figure_1">
  <g id="patch_1">
   <path d="M 0 345.6 
L 460.8 345.6 
L 460.8 0 
L 0 0 
z
" style="fill: #ffffff"/>
  </g>
  <g id="axes_1">
   <g id="patch_2">
    <path d="M 57.6 307.584 
L 414.72 307.584 
L 414.72 41.472 
L 57.6 41.472 
z
" style="fill: #ffffff"/>
   </g>
   <g id="matplotlib.axis_1">
    <g id="xtick_1">
     <g id="line2d_1">
      <defs>
       <path id="m25e0658754" d="M 0 0 
L 0 -3.5 
" style="stroke: #262626; stroke-width: 0.8"/>
      </defs>
      <g>
       <use xlink:href="#m25e0658754" x="57.6" y="307.584" style="fill: #262626; stroke: #262626; stroke-width: 0.8"/>
      </g>
     </g>
     <g id="line2d_2">
      <defs>
       <path id="mf495dbabe6" d="M 0 0 
L 0 3.5 
" style="stroke: #262626; stroke-width: 0.8"/>
      </defs>
      <g>
       <use xlink:href="#mf495dbabe6" x="57.6" y="41.472" style="fill: #262626; stroke: #262626; stroke-width: 0.8"/>
      </g>
     </g>
     <g id="text_1">
      <!-- $\mathdefault{10^{1}}$ -->
      <g style="fill: #262626" transform="translate(46.61 325.5215) scale(0.14 -0.14)">
       <defs>
        <path id="ArialMT-31" d="M 2384 0 
L 1822 0 
L 1822 3584 
Q 1619 3391 1289 3197 
Q 959 3003 697 2906 
L 697 3450 
Q 1169 3672 1522 3987 
Q 1875 4303 2022 4600 
L 2384 4600 
L 2384 0 
z
" transform="scale(0.015625)"/>
        <path id="ArialMT-30" d="M 266 2259 
Q 266 3072 433 3567 
Q 600 4063 929 4331 
Q 1259 4600 1759 4600 
Q 2128 4600 2406 4451 
Q 2684 4303 2865 4023 
Q 3047 3744 3150 3342 
Q 3253 2941 3253 2259 
Q 3253 1453 3087 958 
Q 2922 463 2592 192 
Q 2263 -78 1759 -78 
Q 1097 -78 719 397 
Q 266 969 266 2259 
z
M 844 2259 
Q 844 1131 1108 757 
Q 1372 384 1759 384 
Q 2147 384 2411 759 
Q 2675 1134 2675 2259 
Q 2675 3391 2411 3762 
Q 2147 4134 1753 4134 
Q 1366 4134 1134 3806 
Q 844 3388 844 2259 
z
" transform="scale(0.015625)"/>
       </defs>
       <use xlink:href="#ArialMT-31" transform="translate(0 0.99375)"/>
       <use xlink:href="#ArialMT-30" transform="translate(55.615234 0.99375)"/>
       <use xlink:href="#ArialMT-31" transform="translate(112.972813 70.6875) scale(0.7)"/>
      </g>
     </g>
    </g>
    <g id="xtick_2">
     <g id="line2d_3">
      <g>
       <use xlink:href="#m25e0658754" x="176.64" y="307.584" style="fill: #262626; stroke: #262626; stroke-width: 0.8"/>
      </g>
     </g>
     <g id="line2d_4">
      <g>
       <use xlink:href="#mf495dbabe6" x="176.64" y="41.472" style="fill: #262626; stroke: #262626; stroke-width: 0.8"/>
      </g>
     </g>
     <g id="text_2">
      <!-- $\mathdefault{10^{2}}$ -->
      <g style="fill: #262626" transform="translate(165.65 325.5215) scale(0.14 -0.14)">
       <defs>
        <path id="ArialMT-32" d="M 3222 541 
L 3222 0 
L 194 0 
Q 188 203 259 391 
Q 375 700 629 1000 
Q 884 1300 1366 1694 
Q 2113 2306 2375 2664 
Q 2638 3022 2638 3341 
Q 2638 3675 2398 3904 
Q 2159 4134 1775 4134 
Q 1369 4134 1125 3890 
Q 881 3647 878 3216 
L 300 3275 
Q 359 3922 746 4261 
Q 1134 4600 1788 4600 
Q 2447 4600 2831 4234 
Q 3216 3869 3216 3328 
Q 3216 3053 3103 2787 
Q 2991 2522 2730 2228 
Q 2469 1934 1863 1422 
Q 1356 997 1212 845 
Q 1069 694 975 541 
L 3222 541 
z
" transform="scale(0.015625)"/>
       </defs>
       <use xlink:href="#ArialMT-31" transform="translate(0 0.99375)"/>
       <use xlink:href="#ArialMT-30" transform="translate(55.615234 0.99375)"/>
       <use xlink:href="#ArialMT-32" transform="translate(112.972813 70.6875) scale(0.7)"/>
      </g>
     </g>
    </g>
    <g id="xtick_3">
     <g id="line2d_5">
      <g>
       <use xlink:href="#m25e0658754" x="295.68" y="307.584" style="fill: #262626; stroke: #262626; stroke-width: 0.8"/>
      </g>
     </g>
     <g id="line2d_6">
      <g>
       <use xlink:href="#mf495dbabe6" x="295.68" y="41.472" style="fill: #262626; stroke: #262626; stroke-width: 0.8"/>
      </g>
     </g>
     <g id="text_3">
      <!-- $\mathdefault{10^{3}}$ -->
      <g style="fill: #262626" transform="translate(284.69 325.5215) scale(0.14 -0.14)">
       <defs>
        <path id="ArialMT-33" d="M 269 1209 
L 831 1284 
Q 928 806 1161 595 
Q 1394 384 1728 384 
Q 2125 384 2398 659 
Q 2672 934 2672 1341 
Q 2672 1728 2419 1979 
Q 2166 2231 1775 2231 
Q 1616 2231 1378 2169 
L 1441 2663 
Q 1497 2656 1531 2656 
Q 1891 2656 2178 2843 
Q 2466 3031 2466 3422 
Q 2466 3731 2256 3934 
Q 2047 4138 1716 4138 
Q 1388 4138 1169 3931 
Q 950 3725 888 3313 
L 325 3413 
Q 428 3978 793 4289 
Q 1159 4600 1703 4600 
Q 2078 4600 2393 4439 
Q 2709 4278 2876 4000 
Q 3044 3722 3044 3409 
Q 3044 3113 2884 2869 
Q 2725 2625 2413 2481 
Q 2819 2388 3044 2092 
Q 3269 1797 3269 1353 
Q 3269 753 2831 336 
Q 2394 -81 1725 -81 
Q 1122 -81 723 278 
Q 325 638 269 1209 
z
" transform="scale(0.015625)"/>
       </defs>
       <use xlink:href="#ArialMT-31" transform="translate(0 0.99375)"/>
       <use xlink:href="#ArialMT-30" transform="translate(55.615234 0.99375)"/>
       <use xlink:href="#ArialMT-33" transform="translate(112.972813 70.6875) scale(0.7)"/>
      </g>
     </g>
    </g>
    <g id="xtick_4">
     <g id="line2d_7">
      <g>
       <use xlink:href="#m25e0658754" x="414.72" y="307.584" style="fill: #262626; stroke: #262626; stroke-width: 0.8"/>
      </g>
     </g>
     <g id="line2d_8">
      <g>
       <use xlink:href="#mf495dbabe6" x="414.72" y="41.472" style="fill: #262626; stroke: #262626; stroke-width: 0.8"/>
      </g>
     </g>
     <g id="text_4">
      <!-- $\mathdefault{10^{4}}$ -->
      <g style="fill: #262626" transform="translate(403.73 325.3815) scale(0.14 -0.14)">
       <defs>
        <path id="ArialMT-34" d="M 2069 0 
L 2069 1097 
L 81 1097 
L 81 1613 
L 2172 4581 
L 2631 4581 
L 2631 1613 
L 3250 1613 
L 3250 1097 
L 2631 1097 
L 2631 0 
L 2069 0 
z
M 2069 1613 
L 2069 3678 
L 634 1613 
L 2069 1613 
z
" transform="scale(0.015625)"/>
       </defs>
       <use xlink:href="#ArialMT-31" transform="translate(0 0.201563)"/>
       <use xlink:href="#ArialMT-30" transform="translate(55.615234 0.201563)"/>
       <use xlink:href="#ArialMT-34" transform="translate(112.972813 69.895313) scale(0.7)"/>
      </g>
     </g>
    </g>
    <g id="xtick_5">
     <g id="line2d_9">
      <defs>
       <path id="m65d67b158f" d="M 0 0 
L 0 2 
" style="stroke: #262626; stroke-width: 0.6"/>
      </defs>
      <g>
       <use xlink:href="#m65d67b158f" x="93.434611" y="307.584" style="fill: #262626; stroke: #262626; stroke-width: 0.6"/>
      </g>
     </g>
    </g>
    <g id="xtick_6">
     <g id="line2d_10">
      <g>
       <use xlink:href="#m65d67b158f" x="114.396514" y="307.584" style="fill: #262626; stroke: #262626; stroke-width: 0.6"/>
      </g>
     </g>
    </g>
    <g id="xtick_7">
     <g id="line2d_11">
      <g>
       <use xlink:href="#m65d67b158f" x="129.269221" y="307.584" style="fill: #262626; stroke: #262626; stroke-width: 0.6"/>
      </g>
     </g>
    </g>
    <g id="xtick_8">
     <g id="line2d_12">
      <g>
       <use xlink:href="#m65d67b158f" x="140.805389" y="307.584" style="fill: #262626; stroke: #262626; stroke-width: 0.6"/>
      </g>
     </g>
    </g>
    <g id="xtick_9">
     <g id="line2d_13">
      <g>
       <use xlink:href="#m65d67b158f" x="150.231125" y="307.584" style="fill: #262626; stroke: #262626; stroke-width: 0.6"/>
      </g>
     </g>
    </g>
    <g id="xtick_10">
     <g id="line2d_14">
      <g>
       <use xlink:href="#m65d67b158f" x="158.200471" y="307.584" style="fill: #262626; stroke: #262626; stroke-width: 0.6"/>
      </g>
     </g>
    </g>
    <g id="xtick_11">
     <g id="line2d_15">
      <g>
       <use xlink:href="#m65d67b158f" x="165.103832" y="307.584" style="fill: #262626; stroke: #262626; stroke-width: 0.6"/>
      </g>
     </g>
    </g>
    <g id="xtick_12">
     <g id="line2d_16">
      <g>
       <use xlink:href="#m65d67b158f" x="171.193028" y="307.584" style="fill: #262626; stroke: #262626; stroke-width: 0.6"/>
      </g>
     </g>
    </g>
    <g id="xtick_13">
     <g id="line2d_17">
      <g>
       <use xlink:href="#m65d67b158f" x="212.474611" y="307.584" style="fill: #262626; stroke: #262626; stroke-width: 0.6"/>
      </g>
     </g>
    </g>
    <g id="xtick_14">
     <g id="line2d_18">
      <g>
       <use xlink:href="#m65d67b158f" x="233.436514" y="307.584" style="fill: #262626; stroke: #262626; stroke-width: 0.6"/>
      </g>
     </g>
    </g>
    <g id="xtick_15">
     <g id="line2d_19">
      <g>
       <use xlink:href="#m65d67b158f" x="248.309221" y="307.584" style="fill: #262626; stroke: #262626; stroke-width: 0.6"/>
      </g>
     </g>
    </g>
    <g id="xtick_16">
     <g id="line2d_20">
      <g>
       <use xlink:href="#m65d67b158f" x="259.845389" y="307.584" style="fill: #262626; stroke: #262626; stroke-width: 0.6"/>
      </g>
     </g>
    </g>
    <g id="xtick_17">
     <g id="line2d_21">
      <g>
       <use xlink:href="#m65d67b158f" x="269.271125" y="307.584" style="fill: #262626; stroke: #262626; stroke-width: 0.6"/>
      </g>
     </g>
    </g>
    <g id="xtick_18">
     <g id="line2d_22">
      <g>
       <use xlink:href="#m65d67b158f" x="277.240471" y="307.584" style="fill: #262626; stroke: #262626; stroke-width: 0.6"/>
      </g>
     </g>
    </g>
    <g id="xtick_19">
     <g id="line2d_23">
      <g>
       <use xlink:href="#m65d67b158f" x="284.143832" y="307.584" style="fill: #262626; stroke: #262626; stroke-width: 0.6"/>
      </g>
     </g>
    </g>
    <g id="xtick_20">
     <g id="line2d_24">
      <g>
       <use xlink:href="#m65d67b158f" x="290.233028" y="307.584" style="fill: #262626; stroke: #262626; stroke-width: 0.6"/>
      </g>
     </g>
    </g>
    <g id="xtick_21">
     <g id="line2d_25">
      <g>
       <use xlink:href="#m65d67b158f" x="331.514611" y="307.584" style="fill: #262626; stroke: #262626; stroke-width: 0.6"/>
      </g>
     </g>
    </g>
    <g id="xtick_22">
     <g id="line2d_26">
      <g>
       <use xlink:href="#m65d67b158f" x="352.476514" y="307.584" style="fill: #262626; stroke: #262626; stroke-width: 0.6"/>
      </g>
     </g>
    </g>
    <g id="xtick_23">
     <g id="line2d_27">
      <g>
       <use xlink:href="#m65d67b158f" x="367.349221" y="307.584" style="fill: #262626; stroke: #262626; stroke-width: 0.6"/>
      </g>
     </g>
    </g>
    <g id="xtick_24">
     <g id="line2d_28">
      <g>
       <use xlink:href="#m65d67b158f" x="378.885389" y="307.584" style="fill: #262626; stroke: #262626; stroke-width: 0.6"/>
      </g>
     </g>
    </g>
    <g id="xtick_25">
     <g id="line2d_29">
      <g>
       <use xlink:href="#m65d67b158f" x="388.311125" y="307.584" style="fill: #262626; stroke: #262626; stroke-width: 0.6"/>
      </g>
     </g>
    </g>
    <g id="xtick_26">
     <g id="line2d_30">
      <g>
       <use xlink:href="#m65d67b158f" x="396.280471" y="307.584" style="fill: #262626; stroke: #262626; stroke-width: 0.6"/>
      </g>
     </g>
    </g>
    <g id="xtick_27">
     <g id="line2d_31">
      <g>
       <use xlink:href="#m65d67b158f" x="403.183832" y="307.584" style="fill: #262626; stroke: #262626; stroke-width: 0.6"/>
      </g>
     </g>
    </g>
    <g id="xtick_28">
     <g id="line2d_32">
      <g>
       <use xlink:href="#m65d67b158f" x="409.273028" y="307.584" style="fill: #262626; stroke: #262626; stroke-width: 0.6"/>
      </g>
     </g>
    </g>
    <g id="text_5">
     <!-- $\langle v \rangle ~[ \mathrm{km/s}]$ -->
     <g style="fill: #262626" transform="translate(197.04 343.7565) scale(0.16 -0.16)">
      <defs>
       <path id="DejaVuSans-27e8" d="M 572 2006 
L 1453 4856 
L 1984 4856 
L 1103 2006 
L 1984 -844 
L 1453 -844 
L 572 2006 
z
" transform="scale(0.015625)"/>
       <path id="DejaVuSans-Oblique-76" d="M 459 3500 
L 1069 3500 
L 1581 525 
L 3256 3500 
L 3866 3500 
L 1875 0 
L 1100 0 
L 459 3500 
z
" transform="scale(0.015625)"/>
       <path id="DejaVuSans-27e9" d="M 1925 2006 
L 1044 -844 
L 513 -844 
L 1394 2006 
L 513 4856 
L 1044 4856 
L 1925 2006 
z
" transform="scale(0.015625)"/>
       <path id="DejaVuSans-5b" d="M 550 4863 
L 1875 4863 
L 1875 4416 
L 1125 4416 
L 1125 -397 
L 1875 -397 
L 1875 -844 
L 550 -844 
L 550 4863 
z
" transform="scale(0.015625)"/>
       <path id="DejaVuSans-6b" d="M 581 4863 
L 1159 4863 
L 1159 1991 
L 2875 3500 
L 3609 3500 
L 1753 1863 
L 3688 0 
L 2938 0 
L 1159 1709 
L 1159 0 
L 581 0 
L 581 4863 
z
" transform="scale(0.015625)"/>
       <path id="DejaVuSans-6d" d="M 3328 2828 
Q 3544 3216 3844 3400 
Q 4144 3584 4550 3584 
Q 5097 3584 5394 3201 
Q 5691 2819 5691 2113 
L 5691 0 
L 5113 0 
L 5113 2094 
Q 5113 2597 4934 2840 
Q 4756 3084 4391 3084 
Q 3944 3084 3684 2787 
Q 3425 2491 3425 1978 
L 3425 0 
L 2847 0 
L 2847 2094 
Q 2847 2600 2669 2842 
Q 2491 3084 2119 3084 
Q 1678 3084 1418 2786 
Q 1159 2488 1159 1978 
L 1159 0 
L 581 0 
L 581 3500 
L 1159 3500 
L 1159 2956 
Q 1356 3278 1631 3431 
Q 1906 3584 2284 3584 
Q 2666 3584 2933 3390 
Q 3200 3197 3328 2828 
z
" transform="scale(0.015625)"/>
       <path id="DejaVuSans-2f" d="M 1625 4666 
L 2156 4666 
L 531 -594 
L 0 -594 
L 1625 4666 
z
" transform="scale(0.015625)"/>
       <path id="DejaVuSans-73" d="M 2834 3397 
L 2834 2853 
Q 2591 2978 2328 3040 
Q 2066 3103 1784 3103 
Q 1356 3103 1142 2972 
Q 928 2841 928 2578 
Q 928 2378 1081 2264 
Q 1234 2150 1697 2047 
L 1894 2003 
Q 2506 1872 2764 1633 
Q 3022 1394 3022 966 
Q 3022 478 2636 193 
Q 2250 -91 1575 -91 
Q 1294 -91 989 -36 
Q 684 19 347 128 
L 347 722 
Q 666 556 975 473 
Q 1284 391 1588 391 
Q 1994 391 2212 530 
Q 2431 669 2431 922 
Q 2431 1156 2273 1281 
Q 2116 1406 1581 1522 
L 1381 1569 
Q 847 1681 609 1914 
Q 372 2147 372 2553 
Q 372 3047 722 3315 
Q 1072 3584 1716 3584 
Q 2034 3584 2315 3537 
Q 2597 3491 2834 3397 
z
" transform="scale(0.015625)"/>
       <path id="DejaVuSans-5d" d="M 1947 4863 
L 1947 -844 
L 622 -844 
L 622 -397 
L 1369 -397 
L 1369 4416 
L 622 4416 
L 622 4863 
L 1947 4863 
z
" transform="scale(0.015625)"/>
      </defs>
      <use xlink:href="#DejaVuSans-27e8" transform="translate(0 0.015625)"/>
      <use xlink:href="#DejaVuSans-Oblique-76" transform="translate(39.013672 0.015625)"/>
      <use xlink:href="#DejaVuSans-27e9" transform="translate(98.193359 0.015625)"/>
      <use xlink:href="#DejaVuSans-5b" transform="translate(169.67741 0.015625)"/>
      <use xlink:href="#DejaVuSans-6b" transform="translate(208.691082 0.015625)"/>
      <use xlink:href="#DejaVuSans-6d" transform="translate(266.601238 0.015625)"/>
      <use xlink:href="#DejaVuSans-2f" transform="translate(364.013347 0.015625)"/>
      <use xlink:href="#DejaVuSans-73" transform="translate(397.704753 0.015625)"/>
      <use xlink:href="#DejaVuSans-5d" transform="translate(449.804363 0.015625)"/>
     </g>
    </g>
   </g>
   <g id="matplotlib.axis_2">
    <g id="ytick_1">
     <g id="line2d_33">
      <defs>
       <path id="ma7c6ae0c8b" d="M 0 0 
L 3.5 0 
" style="stroke: #262626; stroke-width: 0.8"/>
      </defs>
      <g>
       <use xlink:href="#ma7c6ae0c8b" x="57.6" y="307.584" style="fill: #262626; stroke: #262626; stroke-width: 0.8"/>
      </g>
     </g>
     <g id="line2d_34">
      <defs>
       <path id="md0ddff9c20" d="M 0 0 
L -3.5 0 
" style="stroke: #262626; stroke-width: 0.8"/>
      </defs>
      <g>
       <use xlink:href="#md0ddff9c20" x="414.72" y="307.584" style="fill: #262626; stroke: #262626; stroke-width: 0.8"/>
      </g>
     </g>
     <g id="text_6">
      <!-- $\mathdefault{10^{0}}$ -->
      <g style="fill: #262626" transform="translate(32.12 314.80275) scale(0.14 -0.14)">
       <use xlink:href="#ArialMT-31" transform="translate(0 0.99375)"/>
       <use xlink:href="#ArialMT-30" transform="translate(55.615234 0.99375)"/>
       <use xlink:href="#ArialMT-30" transform="translate(112.972813 70.6875) scale(0.7)"/>
      </g>
     </g>
    </g>
    <g id="ytick_2">
     <g id="line2d_35">
      <g>
       <use xlink:href="#ma7c6ae0c8b" x="57.6" y="254.3616" style="fill: #262626; stroke: #262626; stroke-width: 0.8"/>
      </g>
     </g>
     <g id="line2d_36">
      <g>
       <use xlink:href="#md0ddff9c20" x="414.72" y="254.3616" style="fill: #262626; stroke: #262626; stroke-width: 0.8"/>
      </g>
     </g>
     <g id="text_7">
      <!-- $\mathdefault{10^{1}}$ -->
      <g style="fill: #262626" transform="translate(32.12 261.58035) scale(0.14 -0.14)">
       <use xlink:href="#ArialMT-31" transform="translate(0 0.99375)"/>
       <use xlink:href="#ArialMT-30" transform="translate(55.615234 0.99375)"/>
       <use xlink:href="#ArialMT-31" transform="translate(112.972813 70.6875) scale(0.7)"/>
      </g>
     </g>
    </g>
    <g id="ytick_3">
     <g id="line2d_37">
      <g>
       <use xlink:href="#ma7c6ae0c8b" x="57.6" y="201.1392" style="fill: #262626; stroke: #262626; stroke-width: 0.8"/>
      </g>
     </g>
     <g id="line2d_38">
      <g>
       <use xlink:href="#md0ddff9c20" x="414.72" y="201.1392" style="fill: #262626; stroke: #262626; stroke-width: 0.8"/>
      </g>
     </g>
     <g id="text_8">
      <!-- $\mathdefault{10^{2}}$ -->
      <g style="fill: #262626" transform="translate(32.12 208.35795) scale(0.14 -0.14)">
       <use xlink:href="#ArialMT-31" transform="translate(0 0.99375)"/>
       <use xlink:href="#ArialMT-30" transform="translate(55.615234 0.99375)"/>
       <use xlink:href="#ArialMT-32" transform="translate(112.972813 70.6875) scale(0.7)"/>
      </g>
     </g>
    </g>
    <g id="ytick_4">
     <g id="line2d_39">
      <g>
       <use xlink:href="#ma7c6ae0c8b" x="57.6" y="147.9168" style="fill: #262626; stroke: #262626; stroke-width: 0.8"/>
      </g>
     </g>
     <g id="line2d_40">
      <g>
       <use xlink:href="#md0ddff9c20" x="414.72" y="147.9168" style="fill: #262626; stroke: #262626; stroke-width: 0.8"/>
      </g>
     </g>
     <g id="text_9">
      <!-- $\mathdefault{10^{3}}$ -->
      <g style="fill: #262626" transform="translate(32.12 155.13555) scale(0.14 -0.14)">
       <use xlink:href="#ArialMT-31" transform="translate(0 0.99375)"/>
       <use xlink:href="#ArialMT-30" transform="translate(55.615234 0.99375)"/>
       <use xlink:href="#ArialMT-33" transform="translate(112.972813 70.6875) scale(0.7)"/>
      </g>
     </g>
    </g>
    <g id="ytick_5">
     <g id="line2d_41">
      <g>
       <use xlink:href="#ma7c6ae0c8b" x="57.6" y="94.6944" style="fill: #262626; stroke: #262626; stroke-width: 0.8"/>
      </g>
     </g>
     <g id="line2d_42">
      <g>
       <use xlink:href="#md0ddff9c20" x="414.72" y="94.6944" style="fill: #262626; stroke: #262626; stroke-width: 0.8"/>
      </g>
     </g>
     <g id="text_10">
      <!-- $\mathdefault{10^{4}}$ -->
      <g style="fill: #262626" transform="translate(32.12 101.84315) scale(0.14 -0.14)">
       <use xlink:href="#ArialMT-31" transform="translate(0 0.201563)"/>
       <use xlink:href="#ArialMT-30" transform="translate(55.615234 0.201563)"/>
       <use xlink:href="#ArialMT-34" transform="translate(112.972813 69.895313) scale(0.7)"/>
      </g>
     </g>
    </g>
    <g id="ytick_6">
     <g id="line2d_43">
      <g>
       <use xlink:href="#ma7c6ae0c8b" x="57.6" y="41.472" style="fill: #262626; stroke: #262626; stroke-width: 0.8"/>
      </g>
     </g>
     <g id="line2d_44">
      <g>
       <use xlink:href="#md0ddff9c20" x="414.72" y="41.472" style="fill: #262626; stroke: #262626; stroke-width: 0.8"/>
      </g>
     </g>
     <g id="text_11">
      <!-- $\mathdefault{10^{5}}$ -->
      <g style="fill: #262626" transform="translate(32.12 48.62075) scale(0.14 -0.14)">
       <defs>
        <path id="ArialMT-35" d="M 266 1200 
L 856 1250 
Q 922 819 1161 601 
Q 1400 384 1738 384 
Q 2144 384 2425 690 
Q 2706 997 2706 1503 
Q 2706 1984 2436 2262 
Q 2166 2541 1728 2541 
Q 1456 2541 1237 2417 
Q 1019 2294 894 2097 
L 366 2166 
L 809 4519 
L 3088 4519 
L 3088 3981 
L 1259 3981 
L 1013 2750 
Q 1425 3038 1878 3038 
Q 2478 3038 2890 2622 
Q 3303 2206 3303 1553 
Q 3303 931 2941 478 
Q 2500 -78 1738 -78 
Q 1113 -78 717 272 
Q 322 622 266 1200 
z
" transform="scale(0.015625)"/>
       </defs>
       <use xlink:href="#ArialMT-31" transform="translate(0 0.879688)"/>
       <use xlink:href="#ArialMT-30" transform="translate(55.615234 0.879688)"/>
       <use xlink:href="#ArialMT-35" transform="translate(112.972813 70.573438) scale(0.7)"/>
      </g>
     </g>
    </g>
    <g id="ytick_7">
     <g id="line2d_45">
      <defs>
       <path id="md1e1fe5db6" d="M 0 0 
L -2 0 
" style="stroke: #262626; stroke-width: 0.6"/>
      </defs>
      <g>
       <use xlink:href="#md1e1fe5db6" x="57.6" y="291.562461" style="fill: #262626; stroke: #262626; stroke-width: 0.6"/>
      </g>
     </g>
    </g>
    <g id="ytick_8">
     <g id="line2d_46">
      <g>
       <use xlink:href="#md1e1fe5db6" x="57.6" y="282.190462" style="fill: #262626; stroke: #262626; stroke-width: 0.6"/>
      </g>
     </g>
    </g>
    <g id="ytick_9">
     <g id="line2d_47">
      <g>
       <use xlink:href="#md1e1fe5db6" x="57.6" y="275.540922" style="fill: #262626; stroke: #262626; stroke-width: 0.6"/>
      </g>
     </g>
    </g>
    <g id="ytick_10">
     <g id="line2d_48">
      <g>
       <use xlink:href="#md1e1fe5db6" x="57.6" y="270.383139" style="fill: #262626; stroke: #262626; stroke-width: 0.6"/>
      </g>
     </g>
    </g>
    <g id="ytick_11">
     <g id="line2d_49">
      <g>
       <use xlink:href="#md1e1fe5db6" x="57.6" y="266.168923" style="fill: #262626; stroke: #262626; stroke-width: 0.6"/>
      </g>
     </g>
    </g>
    <g id="ytick_12">
     <g id="line2d_50">
      <g>
       <use xlink:href="#md1e1fe5db6" x="57.6" y="262.605854" style="fill: #262626; stroke: #262626; stroke-width: 0.6"/>
      </g>
     </g>
    </g>
    <g id="ytick_13">
     <g id="line2d_51">
      <g>
       <use xlink:href="#md1e1fe5db6" x="57.6" y="259.519383" style="fill: #262626; stroke: #262626; stroke-width: 0.6"/>
      </g>
     </g>
    </g>
    <g id="ytick_14">
     <g id="line2d_52">
      <g>
       <use xlink:href="#md1e1fe5db6" x="57.6" y="256.796923" style="fill: #262626; stroke: #262626; stroke-width: 0.6"/>
      </g>
     </g>
    </g>
    <g id="ytick_15">
     <g id="line2d_53">
      <g>
       <use xlink:href="#md1e1fe5db6" x="57.6" y="238.340061" style="fill: #262626; stroke: #262626; stroke-width: 0.6"/>
      </g>
     </g>
    </g>
    <g id="ytick_16">
     <g id="line2d_54">
      <g>
       <use xlink:href="#md1e1fe5db6" x="57.6" y="228.968062" style="fill: #262626; stroke: #262626; stroke-width: 0.6"/>
      </g>
     </g>
    </g>
    <g id="ytick_17">
     <g id="line2d_55">
      <g>
       <use xlink:href="#md1e1fe5db6" x="57.6" y="222.318522" style="fill: #262626; stroke: #262626; stroke-width: 0.6"/>
      </g>
     </g>
    </g>
    <g id="ytick_18">
     <g id="line2d_56">
      <g>
       <use xlink:href="#md1e1fe5db6" x="57.6" y="217.160739" style="fill: #262626; stroke: #262626; stroke-width: 0.6"/>
      </g>
     </g>
    </g>
    <g id="ytick_19">
     <g id="line2d_57">
      <g>
       <use xlink:href="#md1e1fe5db6" x="57.6" y="212.946523" style="fill: #262626; stroke: #262626; stroke-width: 0.6"/>
      </g>
     </g>
    </g>
    <g id="ytick_20">
     <g id="line2d_58">
      <g>
       <use xlink:href="#md1e1fe5db6" x="57.6" y="209.383454" style="fill: #262626; stroke: #262626; stroke-width: 0.6"/>
      </g>
     </g>
    </g>
    <g id="ytick_21">
     <g id="line2d_59">
      <g>
       <use xlink:href="#md1e1fe5db6" x="57.6" y="206.296983" style="fill: #262626; stroke: #262626; stroke-width: 0.6"/>
      </g>
     </g>
    </g>
    <g id="ytick_22">
     <g id="line2d_60">
      <g>
       <use xlink:href="#md1e1fe5db6" x="57.6" y="203.574523" style="fill: #262626; stroke: #262626; stroke-width: 0.6"/>
      </g>
     </g>
    </g>
    <g id="ytick_23">
     <g id="line2d_61">
      <g>
       <use xlink:href="#md1e1fe5db6" x="57.6" y="185.117661" style="fill: #262626; stroke: #262626; stroke-width: 0.6"/>
      </g>
     </g>
    </g>
    <g id="ytick_24">
     <g id="line2d_62">
      <g>
       <use xlink:href="#md1e1fe5db6" x="57.6" y="175.745662" style="fill: #262626; stroke: #262626; stroke-width: 0.6"/>
      </g>
     </g>
    </g>
    <g id="ytick_25">
     <g id="line2d_63">
      <g>
       <use xlink:href="#md1e1fe5db6" x="57.6" y="169.096122" style="fill: #262626; stroke: #262626; stroke-width: 0.6"/>
      </g>
     </g>
    </g>
    <g id="ytick_26">
     <g id="line2d_64">
      <g>
       <use xlink:href="#md1e1fe5db6" x="57.6" y="163.938339" style="fill: #262626; stroke: #262626; stroke-width: 0.6"/>
      </g>
     </g>
    </g>
    <g id="ytick_27">
     <g id="line2d_65">
      <g>
       <use xlink:href="#md1e1fe5db6" x="57.6" y="159.724123" style="fill: #262626; stroke: #262626; stroke-width: 0.6"/>
      </g>
     </g>
    </g>
    <g id="ytick_28">
     <g id="line2d_66">
      <g>
       <use xlink:href="#md1e1fe5db6" x="57.6" y="156.161054" style="fill: #262626; stroke: #262626; stroke-width: 0.6"/>
      </g>
     </g>
    </g>
    <g id="ytick_29">
     <g id="line2d_67">
      <g>
       <use xlink:href="#md1e1fe5db6" x="57.6" y="153.074583" style="fill: #262626; stroke: #262626; stroke-width: 0.6"/>
      </g>
     </g>
    </g>
    <g id="ytick_30">
     <g id="line2d_68">
      <g>
       <use xlink:href="#md1e1fe5db6" x="57.6" y="150.352123" style="fill: #262626; stroke: #262626; stroke-width: 0.6"/>
      </g>
     </g>
    </g>
    <g id="ytick_31">
     <g id="line2d_69">
      <g>
       <use xlink:href="#md1e1fe5db6" x="57.6" y="131.895261" style="fill: #262626; stroke: #262626; stroke-width: 0.6"/>
      </g>
     </g>
    </g>
    <g id="ytick_32">
     <g id="line2d_70">
      <g>
       <use xlink:href="#md1e1fe5db6" x="57.6" y="122.523262" style="fill: #262626; stroke: #262626; stroke-width: 0.6"/>
      </g>
     </g>
    </g>
    <g id="ytick_33">
     <g id="line2d_71">
      <g>
       <use xlink:href="#md1e1fe5db6" x="57.6" y="115.873722" style="fill: #262626; stroke: #262626; stroke-width: 0.6"/>
      </g>
     </g>
    </g>
    <g id="ytick_34">
     <g id="line2d_72">
      <g>
       <use xlink:href="#md1e1fe5db6" x="57.6" y="110.715939" style="fill: #262626; stroke: #262626; stroke-width: 0.6"/>
      </g>
     </g>
    </g>
    <g id="ytick_35">
     <g id="line2d_73">
      <g>
       <use xlink:href="#md1e1fe5db6" x="57.6" y="106.501723" style="fill: #262626; stroke: #262626; stroke-width: 0.6"/>
      </g>
     </g>
    </g>
    <g id="ytick_36">
     <g id="line2d_74">
      <g>
       <use xlink:href="#md1e1fe5db6" x="57.6" y="102.938654" style="fill: #262626; stroke: #262626; stroke-width: 0.6"/>
      </g>
     </g>
    </g>
    <g id="ytick_37">
     <g id="line2d_75">
      <g>
       <use xlink:href="#md1e1fe5db6" x="57.6" y="99.852183" style="fill: #262626; stroke: #262626; stroke-width: 0.6"/>
      </g>
     </g>
    </g>
    <g id="ytick_38">
     <g id="line2d_76">
      <g>
       <use xlink:href="#md1e1fe5db6" x="57.6" y="97.129723" style="fill: #262626; stroke: #262626; stroke-width: 0.6"/>
      </g>
     </g>
    </g>
    <g id="ytick_39">
     <g id="line2d_77">
      <g>
       <use xlink:href="#md1e1fe5db6" x="57.6" y="78.672861" style="fill: #262626; stroke: #262626; stroke-width: 0.6"/>
      </g>
     </g>
    </g>
    <g id="ytick_40">
     <g id="line2d_78">
      <g>
       <use xlink:href="#md1e1fe5db6" x="57.6" y="69.300862" style="fill: #262626; stroke: #262626; stroke-width: 0.6"/>
      </g>
     </g>
    </g>
    <g id="ytick_41">
     <g id="line2d_79">
      <g>
       <use xlink:href="#md1e1fe5db6" x="57.6" y="62.651322" style="fill: #262626; stroke: #262626; stroke-width: 0.6"/>
      </g>
     </g>
    </g>
    <g id="ytick_42">
     <g id="line2d_80">
      <g>
       <use xlink:href="#md1e1fe5db6" x="57.6" y="57.493539" style="fill: #262626; stroke: #262626; stroke-width: 0.6"/>
      </g>
     </g>
    </g>
    <g id="ytick_43">
     <g id="line2d_81">
      <g>
       <use xlink:href="#md1e1fe5db6" x="57.6" y="53.279323" style="fill: #262626; stroke: #262626; stroke-width: 0.6"/>
      </g>
     </g>
    </g>
    <g id="ytick_44">
     <g id="line2d_82">
      <g>
       <use xlink:href="#md1e1fe5db6" x="57.6" y="49.716254" style="fill: #262626; stroke: #262626; stroke-width: 0.6"/>
      </g>
     </g>
    </g>
    <g id="ytick_45">
     <g id="line2d_83">
      <g>
       <use xlink:href="#md1e1fe5db6" x="57.6" y="46.629783" style="fill: #262626; stroke: #262626; stroke-width: 0.6"/>
      </g>
     </g>
    </g>
    <g id="ytick_46">
     <g id="line2d_84">
      <g>
       <use xlink:href="#md1e1fe5db6" x="57.6" y="43.907323" style="fill: #262626; stroke: #262626; stroke-width: 0.6"/>
      </g>
     </g>
    </g>
    <g id="text_12">
     <!-- $\langle\sigma_T v \rangle /m_{\chi} ~[\mathrm{cm^2/g \times km/s}]$ -->
     <g style="fill: #262626" transform="translate(23.16 270.048) rotate(-90) scale(0.16 -0.16)">
      <defs>
       <path id="DejaVuSans-Oblique-3c3" d="M 2219 3044 
Q 1744 3044 1422 2700 
Q 1081 2341 969 1747 
Q 844 1119 1044 756 
Q 1241 397 1706 397 
Q 2166 397 2503 759 
Q 2844 1122 2966 1747 
Q 3075 2319 2881 2700 
Q 2700 3044 2219 3044 
z
M 2309 3503 
L 4219 3500 
L 4106 2925 
L 3463 2925 
Q 3706 2438 3575 1747 
Q 3406 888 2884 400 
Q 2359 -91 1609 -91 
Q 856 -91 525 400 
Q 194 888 363 1747 
Q 528 2609 1050 3097 
Q 1484 3503 2309 3503 
z
" transform="scale(0.015625)"/>
       <path id="DejaVuSans-Oblique-54" d="M 378 4666 
L 4325 4666 
L 4225 4134 
L 2559 4134 
L 1759 0 
L 1125 0 
L 1925 4134 
L 275 4134 
L 378 4666 
z
" transform="scale(0.015625)"/>
       <path id="DejaVuSans-Oblique-6d" d="M 5747 2113 
L 5338 0 
L 4763 0 
L 5166 2094 
Q 5191 2228 5203 2325 
Q 5216 2422 5216 2491 
Q 5216 2772 5059 2928 
Q 4903 3084 4622 3084 
Q 4203 3084 3875 2770 
Q 3547 2456 3450 1953 
L 3066 0 
L 2491 0 
L 2900 2094 
Q 2925 2209 2937 2307 
Q 2950 2406 2950 2484 
Q 2950 2769 2794 2926 
Q 2638 3084 2363 3084 
Q 1938 3084 1609 2770 
Q 1281 2456 1184 1953 
L 800 0 
L 225 0 
L 909 3500 
L 1484 3500 
L 1375 2956 
Q 1609 3263 1923 3423 
Q 2238 3584 2597 3584 
Q 2978 3584 3223 3384 
Q 3469 3184 3519 2828 
Q 3781 3197 4126 3390 
Q 4472 3584 4856 3584 
Q 5306 3584 5551 3325 
Q 5797 3066 5797 2591 
Q 5797 2488 5784 2364 
Q 5772 2241 5747 2113 
z
" transform="scale(0.015625)"/>
       <path id="DejaVuSans-Oblique-3c7" d="M 1922 -781 
L 1691 416 
L 394 -1334 
L -284 -1334 
L 1553 1141 
L 1269 2613 
Q 1194 3006 713 3006 
L 559 3006 
L 653 3500 
L 872 3494 
Q 1675 3472 1775 2950 
L 2006 1753 
L 3303 3503 
L 3981 3503 
L 2144 1028 
L 2428 -444 
Q 2503 -838 2984 -838 
L 3138 -838 
L 3044 -1331 
L 2825 -1325 
Q 2022 -1303 1922 -781 
z
" transform="scale(0.015625)"/>
       <path id="DejaVuSans-63" d="M 3122 3366 
L 3122 2828 
Q 2878 2963 2633 3030 
Q 2388 3097 2138 3097 
Q 1578 3097 1268 2742 
Q 959 2388 959 1747 
Q 959 1106 1268 751 
Q 1578 397 2138 397 
Q 2388 397 2633 464 
Q 2878 531 3122 666 
L 3122 134 
Q 2881 22 2623 -34 
Q 2366 -91 2075 -91 
Q 1284 -91 818 406 
Q 353 903 353 1747 
Q 353 2603 823 3093 
Q 1294 3584 2113 3584 
Q 2378 3584 2631 3529 
Q 2884 3475 3122 3366 
z
" transform="scale(0.015625)"/>
       <path id="DejaVuSans-32" d="M 1228 531 
L 3431 531 
L 3431 0 
L 469 0 
L 469 531 
Q 828 903 1448 1529 
Q 2069 2156 2228 2338 
Q 2531 2678 2651 2914 
Q 2772 3150 2772 3378 
Q 2772 3750 2511 3984 
Q 2250 4219 1831 4219 
Q 1534 4219 1204 4116 
Q 875 4013 500 3803 
L 500 4441 
Q 881 4594 1212 4672 
Q 1544 4750 1819 4750 
Q 2544 4750 2975 4387 
Q 3406 4025 3406 3419 
Q 3406 3131 3298 2873 
Q 3191 2616 2906 2266 
Q 2828 2175 2409 1742 
Q 1991 1309 1228 531 
z
" transform="scale(0.015625)"/>
       <path id="DejaVuSans-67" d="M 2906 1791 
Q 2906 2416 2648 2759 
Q 2391 3103 1925 3103 
Q 1463 3103 1205 2759 
Q 947 2416 947 1791 
Q 947 1169 1205 825 
Q 1463 481 1925 481 
Q 2391 481 2648 825 
Q 2906 1169 2906 1791 
z
M 3481 434 
Q 3481 -459 3084 -895 
Q 2688 -1331 1869 -1331 
Q 1566 -1331 1297 -1286 
Q 1028 -1241 775 -1147 
L 775 -588 
Q 1028 -725 1275 -790 
Q 1522 -856 1778 -856 
Q 2344 -856 2625 -561 
Q 2906 -266 2906 331 
L 2906 616 
Q 2728 306 2450 153 
Q 2172 0 1784 0 
Q 1141 0 747 490 
Q 353 981 353 1791 
Q 353 2603 747 3093 
Q 1141 3584 1784 3584 
Q 2172 3584 2450 3431 
Q 2728 3278 2906 2969 
L 2906 3500 
L 3481 3500 
L 3481 434 
z
" transform="scale(0.015625)"/>
       <path id="DejaVuSans-d7" d="M 4488 3438 
L 3059 2003 
L 4488 575 
L 4116 197 
L 2681 1631 
L 1247 197 
L 878 575 
L 2303 2003 
L 878 3438 
L 1247 3816 
L 2681 2381 
L 4116 3816 
L 4488 3438 
z
" transform="scale(0.015625)"/>
      </defs>
      <use xlink:href="#DejaVuSans-27e8" transform="translate(0 0.765625)"/>
      <use xlink:href="#DejaVuSans-Oblique-3c3" transform="translate(39.013672 0.765625)"/>
      <use xlink:href="#DejaVuSans-Oblique-54" transform="translate(102.392578 -15.640625) scale(0.7)"/>
      <use xlink:href="#DejaVuSans-Oblique-76" transform="translate(147.885742 0.765625)"/>
      <use xlink:href="#DejaVuSans-27e9" transform="translate(207.06543 0.765625)"/>
      <use xlink:href="#DejaVuSans-2f" transform="translate(246.079102 0.765625)"/>
      <use xlink:href="#DejaVuSans-Oblique-6d" transform="translate(279.770508 0.765625)"/>
      <use xlink:href="#DejaVuSans-Oblique-3c7" transform="translate(377.182617 -15.640625) scale(0.7)"/>
      <use xlink:href="#DejaVuSans-5b" transform="translate(453.813152 0.765625)"/>
      <use xlink:href="#DejaVuSans-63" transform="translate(492.826824 0.765625)"/>
      <use xlink:href="#DejaVuSans-6d" transform="translate(547.807292 0.765625)"/>
      <use xlink:href="#DejaVuSans-32" transform="translate(646.176433 39.046875) scale(0.7)"/>
      <use xlink:href="#DejaVuSans-2f" transform="translate(693.446941 0.765625)"/>
      <use xlink:href="#DejaVuSans-67" transform="translate(727.138347 0.765625)"/>
      <use xlink:href="#DejaVuSans-d7" transform="translate(810.097332 0.765625)"/>
      <use xlink:href="#DejaVuSans-6b" transform="translate(913.368816 0.765625)"/>
      <use xlink:href="#DejaVuSans-6d" transform="translate(971.278972 0.765625)"/>
      <use xlink:href="#DejaVuSans-2f" transform="translate(1068.691082 0.765625)"/>
      <use xlink:href="#DejaVuSans-73" transform="translate(1102.382488 0.765625)"/>
      <use xlink:href="#DejaVuSans-5d" transform="translate(1154.482097 0.765625)"/>
     </g>
    </g>
   </g>
   <g id="line2d_85">
    <path d="M 57.6 237.735397 
L 61.207273 236.123643 
L 64.814545 234.512043 
L 68.421818 232.900622 
L 72.029091 231.28941 
L 75.636364 229.678435 
L 79.243636 228.067732 
L 82.850909 226.457344 
L 86.458182 224.847315 
L 90.065455 223.237703 
L 93.672727 221.628566 
L 97.28 220.019977 
L 100.887273 218.412018 
L 104.494545 216.804782 
L 108.101818 215.198377 
L 111.709091 213.592927 
L 115.316364 211.988575 
L 118.923636 210.385483 
L 122.530909 208.783839 
L 126.138182 207.183858 
L 129.745455 205.585785 
L 133.352727 203.989904 
L 136.96 202.396539 
L 140.567273 200.806059 
L 144.174545 199.21889 
L 147.781818 197.635517 
L 151.389091 196.056495 
L 154.996364 194.482458 
L 158.603636 192.914129 
L 162.210909 191.352333 
L 165.818182 189.798008 
L 169.425455 188.252221 
L 173.032727 186.716182 
L 176.64 185.191263 
L 180.247273 183.679014 
L 183.854545 182.18118 
L 187.461818 180.699728 
L 191.069091 179.236857 
L 194.676364 177.795028 
L 198.283636 176.376975 
L 201.890909 174.985727 
L 205.498182 173.624623 
L 209.105455 172.297319 
L 212.712727 171.007797 
L 216.32 169.760362 
L 219.927273 168.559633 
L 223.534545 167.410524 
L 227.141818 166.318213 
L 230.749091 165.288102 
L 234.356364 164.325762 
L 237.963636 163.436872 
L 241.570909 162.627138 
L 245.178182 161.902218 
L 248.785455 161.267628 
L 252.392727 160.728658 
L 256 160.290282 
L 259.607273 159.957077 
L 263.214545 159.733152 
L 266.821818 159.62209 
L 270.429091 159.626903 
L 274.036364 159.750004 
L 277.643636 159.993194 
L 281.250909 160.357667 
L 284.858182 160.844023 
L 288.465455 161.452302 
L 292.072727 162.182021 
L 295.68 163.032213 
L 299.287273 164.001483 
L 302.894545 165.088058 
L 306.501818 166.289835 
L 310.109091 167.604436 
L 313.716364 169.02925 
L 317.323636 170.561486 
L 320.930909 172.198206 
L 324.538182 173.936367 
L 328.145455 175.772854 
L 331.752727 177.704506 
L 335.36 179.728144 
L 338.967273 181.840593 
L 342.574545 184.038699 
L 346.181818 186.319348 
L 349.789091 188.679475 
L 353.396364 191.116076 
L 357.003636 193.62622 
L 360.610909 196.207051 
L 364.218182 198.855797 
L 367.825455 201.569769 
L 371.432727 204.34637 
L 375.04 207.183092 
L 378.647273 210.077518 
L 382.254545 213.027323 
L 385.861818 216.03027 
L 389.469091 219.084215 
L 393.076364 222.187099 
L 396.683636 225.336949 
L 400.290909 228.531876 
L 403.898182 231.770074 
L 407.505455 235.049813 
L 411.112727 238.36944 
L 414.72 241.727378 
" clip-path="url(#p5101f69643)" style="fill: none; stroke: #9b0800; stroke-width: 1.5; stroke-linecap: round"/>
   </g>
   <g id="line2d_86">
    <path d="M 57.6 293.238664 
L 61.207273 291.766763 
L 64.814545 290.314714 
L 68.421818 288.885119 
L 72.029091 287.480867 
L 75.636364 286.105149 
L 79.243636 284.761472 
L 82.850909 283.453663 
L 86.458182 282.185876 
L 90.065455 280.962584 
L 93.672727 279.788566 
L 97.28 278.66888 
L 100.887273 277.608829 
L 104.494545 276.613911 
L 108.101818 275.689763 
L 111.709091 274.842089 
L 115.316364 274.076579 
L 118.923636 273.398828 
L 122.530909 272.814244 
L 126.138182 272.327958 
L 129.745455 271.944744 
L 133.352727 271.66894 
L 136.96 271.504383 
L 140.567273 271.454358 
L 144.174545 271.521562 
L 147.781818 271.708083 
L 151.389091 272.015401 
L 154.996364 272.444391 
L 158.603636 272.995354 
L 162.210909 273.668046 
L 165.818182 274.461723 
L 169.425455 275.375185 
L 173.032727 276.40683 
L 176.64 277.554703 
L 180.247273 278.81655 
L 183.854545 280.189863 
L 187.461818 281.671932 
L 191.069091 283.259882 
L 194.676364 284.950716 
L 198.283636 286.741348 
L 201.890909 288.628634 
L 205.498182 290.609403 
L 209.105455 292.680475 
L 212.712727 294.838684 
L 216.32 297.080895 
L 219.927273 299.404017 
L 223.534545 301.805019 
L 227.141818 304.280934 
L 230.749091 306.828868 
L 234.356364 309.446011 
L 237.963636 312.129633 
L 241.570909 314.877095 
L 245.178182 317.685846 
L 248.785455 320.553427 
L 252.392727 323.477468 
L 256 326.455693 
L 259.607273 329.485914 
L 263.214545 332.56603 
L 266.821818 335.69403 
L 270.429091 338.867985 
L 274.036364 342.086051 
L 277.643636 345.346462 
L 279.013452 346.6 
" clip-path="url(#p5101f69643)" style="fill: none; stroke-dasharray: 5.55,2.4; stroke-dashoffset: 0; stroke: #9b0800; stroke-width: 1.5"/>
   </g>
   <g id="line2d_87">
    <path d="M 57.6 277.215637 
L 61.207273 275.743207 
L 64.814545 274.290768 
L 68.421818 272.860263 
L 72.029091 271.455884 
L 75.636364 270.079067 
L 79.243636 268.733698 
L 82.850909 267.424252 
L 86.458182 266.154203 
L 90.065455 264.928031 
L 93.672727 263.750567 
L 97.28 262.626428 
L 100.887273 261.560818 
L 104.494545 260.559013 
L 108.101818 259.626375 
L 111.709091 258.768383 
L 115.316364 257.990378 
L 118.923636 257.297632 
L 122.530909 256.695204 
L 126.138182 256.187871 
L 129.745455 255.780054 
L 133.352727 255.475746 
L 136.96 255.278466 
L 140.567273 255.191214 
L 144.174545 255.216443 
L 147.781818 255.35605 
L 151.389091 255.611378 
L 154.996364 255.983227 
L 158.603636 256.471884 
L 162.210909 257.07715 
L 165.818182 257.798383 
L 169.425455 258.634537 
L 173.032727 259.584211 
L 176.64 260.645693 
L 180.247273 261.816999 
L 183.854545 263.095923 
L 187.461818 264.480073 
L 191.069091 265.966905 
L 194.676364 267.553763 
L 198.283636 269.237902 
L 201.890909 271.01652 
L 205.498182 272.886778 
L 209.105455 274.845825 
L 212.712727 276.890807 
L 216.32 279.018894 
L 219.927273 281.227281 
L 223.534545 283.513208 
L 227.141818 285.873962 
L 230.749091 288.306888 
L 234.356364 290.809396 
L 237.963636 293.37896 
L 241.570909 296.013126 
L 245.178182 298.709512 
L 248.785455 301.465812 
L 252.392727 304.279795 
L 256 307.149306 
L 259.607273 310.072264 
L 263.214545 313.046664 
L 266.821818 316.070576 
L 270.429091 319.142142 
L 274.036364 322.259574 
L 277.643636 325.421155 
L 281.250909 328.625235 
L 284.858182 331.870232 
L 288.465455 335.154625 
L 292.072727 338.476956 
L 295.68 341.835828 
L 299.287273 345.229899 
L 300.729031 346.6 
" clip-path="url(#p5101f69643)" style="fill: none; stroke-dasharray: 1.5,2.475; stroke-dashoffset: 0; stroke: #9b0800; stroke-width: 1.5"/>
   </g>
   <g id="line2d_88">
    <path d="M 208.414776 346.6 
L 209.105455 346.2912 
L 212.712727 344.6784 
L 216.32 343.0656 
L 219.927273 341.4528 
L 223.534545 339.84 
L 227.141818 338.2272 
L 230.749091 336.6144 
L 234.356364 335.0016 
L 237.963636 333.3888 
L 241.570909 331.776 
L 245.178182 330.1632 
L 248.785455 328.5504 
L 252.392727 326.9376 
L 256 325.3248 
L 259.607273 323.712 
L 263.214545 322.0992 
L 266.821818 320.4864 
L 270.429091 318.8736 
L 274.036364 317.2608 
L 277.643636 315.648 
L 281.250909 314.0352 
L 284.858182 312.4224 
L 288.465455 310.8096 
L 292.072727 309.1968 
L 295.68 307.584 
L 299.287273 305.9712 
L 302.894545 304.3584 
L 306.501818 302.7456 
L 310.109091 301.1328 
L 313.716364 299.52 
L 317.323636 297.9072 
L 320.930909 296.2944 
L 324.538182 294.6816 
L 328.145455 293.0688 
L 331.752727 291.456 
L 335.36 289.8432 
L 338.967273 288.2304 
L 342.574545 286.6176 
L 346.181818 285.0048 
L 349.789091 283.392 
L 353.396364 281.7792 
L 357.003636 280.1664 
L 360.610909 278.5536 
L 364.218182 276.9408 
L 367.825455 275.328 
L 371.432727 273.7152 
L 375.04 272.1024 
L 378.647273 270.4896 
L 382.254545 268.8768 
L 385.861818 267.264 
L 389.469091 265.6512 
L 393.076364 264.0384 
L 396.683636 262.4256 
L 400.290909 260.8128 
L 403.898182 259.2 
L 407.505455 257.5872 
L 411.112727 255.9744 
L 414.72 254.3616 
" clip-path="url(#p5101f69643)" style="fill: none; stroke-dasharray: 3.7,1.6; stroke-dashoffset: 0; stroke: #b1b2b0"/>
   </g>
   <g id="line2d_89">
    <path d="M 89.374776 346.6 
L 90.065455 346.2912 
L 93.672727 344.6784 
L 97.28 343.0656 
L 100.887273 341.4528 
L 104.494545 339.84 
L 108.101818 338.2272 
L 111.709091 336.6144 
L 115.316364 335.0016 
L 118.923636 333.3888 
L 122.530909 331.776 
L 126.138182 330.1632 
L 129.745455 328.5504 
L 133.352727 326.9376 
L 136.96 325.3248 
L 140.567273 323.712 
L 144.174545 322.0992 
L 147.781818 320.4864 
L 151.389091 318.8736 
L 154.996364 317.2608 
L 158.603636 315.648 
L 162.210909 314.0352 
L 165.818182 312.4224 
L 169.425455 310.8096 
L 173.032727 309.1968 
L 176.64 307.584 
L 180.247273 305.9712 
L 183.854545 304.3584 
L 187.461818 302.7456 
L 191.069091 301.1328 
L 194.676364 299.52 
L 198.283636 297.9072 
L 201.890909 296.2944 
L 205.498182 294.6816 
L 209.105455 293.0688 
L 212.712727 291.456 
L 216.32 289.8432 
L 219.927273 288.2304 
L 223.534545 286.6176 
L 227.141818 285.0048 
L 230.749091 283.392 
L 234.356364 281.7792 
L 237.963636 280.1664 
L 241.570909 278.5536 
L 245.178182 276.9408 
L 248.785455 275.328 
L 252.392727 273.7152 
L 256 272.1024 
L 259.607273 270.4896 
L 263.214545 268.8768 
L 266.821818 267.264 
L 270.429091 265.6512 
L 274.036364 264.0384 
L 277.643636 262.4256 
L 281.250909 260.8128 
L 284.858182 259.2 
L 288.465455 257.5872 
L 292.072727 255.9744 
L 295.68 254.3616 
L 299.287273 252.7488 
L 302.894545 251.136 
L 306.501818 249.5232 
L 310.109091 247.9104 
L 313.716364 246.2976 
L 317.323636 244.6848 
L 320.930909 243.072 
L 324.538182 241.4592 
L 328.145455 239.8464 
L 331.752727 238.2336 
L 335.36 236.6208 
L 338.967273 235.008 
L 342.574545 233.3952 
L 346.181818 231.7824 
L 349.789091 230.1696 
L 353.396364 228.5568 
L 357.003636 226.944 
L 360.610909 225.3312 
L 364.218182 223.7184 
L 367.825455 222.1056 
L 371.432727 220.4928 
L 375.04 218.88 
L 378.647273 217.2672 
L 382.254545 215.6544 
L 385.861818 214.0416 
L 389.469091 212.4288 
L 393.076364 210.816 
L 396.683636 209.2032 
L 400.290909 207.5904 
L 403.898182 205.9776 
L 407.505455 204.3648 
L 411.112727 202.752 
L 414.72 201.1392 
" clip-path="url(#p5101f69643)" style="fill: none; stroke-dasharray: 3.7,1.6; stroke-dashoffset: 0; stroke: #b1b2b0"/>
   </g>
   <g id="line2d_90">
    <path d="M 57.6 307.584 
L 61.207273 305.9712 
L 64.814545 304.3584 
L 68.421818 302.7456 
L 72.029091 301.1328 
L 75.636364 299.52 
L 79.243636 297.9072 
L 82.850909 296.2944 
L 86.458182 294.6816 
L 90.065455 293.0688 
L 93.672727 291.456 
L 97.28 289.8432 
L 100.887273 288.2304 
L 104.494545 286.6176 
L 108.101818 285.0048 
L 111.709091 283.392 
L 115.316364 281.7792 
L 118.923636 280.1664 
L 122.530909 278.5536 
L 126.138182 276.9408 
L 129.745455 275.328 
L 133.352727 273.7152 
L 136.96 272.1024 
L 140.567273 270.4896 
L 144.174545 268.8768 
L 147.781818 267.264 
L 151.389091 265.6512 
L 154.996364 264.0384 
L 158.603636 262.4256 
L 162.210909 260.8128 
L 165.818182 259.2 
L 169.425455 257.5872 
L 173.032727 255.9744 
L 176.64 254.3616 
L 180.247273 252.7488 
L 183.854545 251.136 
L 187.461818 249.5232 
L 191.069091 247.9104 
L 194.676364 246.2976 
L 198.283636 244.6848 
L 201.890909 243.072 
L 205.498182 241.4592 
L 209.105455 239.8464 
L 212.712727 238.2336 
L 216.32 236.6208 
L 219.927273 235.008 
L 223.534545 233.3952 
L 227.141818 231.7824 
L 230.749091 230.1696 
L 234.356364 228.5568 
L 237.963636 226.944 
L 241.570909 225.3312 
L 245.178182 223.7184 
L 248.785455 222.1056 
L 252.392727 220.4928 
L 256 218.88 
L 259.607273 217.2672 
L 263.214545 215.6544 
L 266.821818 214.0416 
L 270.429091 212.4288 
L 274.036364 210.816 
L 277.643636 209.2032 
L 281.250909 207.5904 
L 284.858182 205.9776 
L 288.465455 204.3648 
L 292.072727 202.752 
L 295.68 201.1392 
L 299.287273 199.5264 
L 302.894545 197.9136 
L 306.501818 196.3008 
L 310.109091 194.688 
L 313.716364 193.0752 
L 317.323636 191.4624 
L 320.930909 189.8496 
L 324.538182 188.2368 
L 328.145455 186.624 
L 331.752727 185.0112 
L 335.36 183.3984 
L 338.967273 181.7856 
L 342.574545 180.1728 
L 346.181818 178.56 
L 349.789091 176.9472 
L 353.396364 175.3344 
L 357.003636 173.7216 
L 360.610909 172.1088 
L 364.218182 170.496 
L 367.825455 168.8832 
L 371.432727 167.2704 
L 375.04 165.6576 
L 378.647273 164.0448 
L 382.254545 162.432 
L 385.861818 160.8192 
L 389.469091 159.2064 
L 393.076364 157.5936 
L 396.683636 155.9808 
L 400.290909 154.368 
L 403.898182 152.7552 
L 407.505455 151.1424 
L 411.112727 149.5296 
L 414.72 147.9168 
" clip-path="url(#p5101f69643)" style="fill: none; stroke-dasharray: 3.7,1.6; stroke-dashoffset: 0; stroke: #b1b2b0"/>
   </g>
   <g id="line2d_91">
    <path d="M 57.6 201.1392 
L 61.207273 199.5264 
L 64.814545 197.9136 
L 68.421818 196.3008 
L 72.029091 194.688 
L 75.636364 193.0752 
L 79.243636 191.4624 
L 82.850909 189.8496 
L 86.458182 188.2368 
L 90.065455 186.624 
L 93.672727 185.0112 
L 97.28 183.3984 
L 100.887273 181.7856 
L 104.494545 180.1728 
L 108.101818 178.56 
L 111.709091 176.9472 
L 115.316364 175.3344 
L 118.923636 173.7216 
L 122.530909 172.1088 
L 126.138182 170.496 
L 129.745455 168.8832 
L 133.352727 167.2704 
L 136.96 165.6576 
L 140.567273 164.0448 
L 144.174545 162.432 
L 147.781818 160.8192 
L 151.389091 159.2064 
L 154.996364 157.5936 
L 158.603636 155.9808 
L 162.210909 154.368 
L 165.818182 152.7552 
L 169.425455 151.1424 
L 173.032727 149.5296 
L 176.64 147.9168 
L 180.247273 146.304 
L 183.854545 144.6912 
L 187.461818 143.0784 
L 191.069091 141.4656 
L 194.676364 139.8528 
L 198.283636 138.24 
L 201.890909 136.6272 
L 205.498182 135.0144 
L 209.105455 133.4016 
L 212.712727 131.7888 
L 216.32 130.176 
L 219.927273 128.5632 
L 223.534545 126.9504 
L 227.141818 125.3376 
L 230.749091 123.7248 
L 234.356364 122.112 
L 237.963636 120.4992 
L 241.570909 118.8864 
L 245.178182 117.2736 
L 248.785455 115.6608 
L 252.392727 114.048 
L 256 112.4352 
L 259.607273 110.8224 
L 263.214545 109.2096 
L 266.821818 107.5968 
L 270.429091 105.984 
L 274.036364 104.3712 
L 277.643636 102.7584 
L 281.250909 101.1456 
L 284.858182 99.5328 
L 288.465455 97.92 
L 292.072727 96.3072 
L 295.68 94.6944 
L 299.287273 93.0816 
L 302.894545 91.4688 
L 306.501818 89.856 
L 310.109091 88.2432 
L 313.716364 86.6304 
L 317.323636 85.0176 
L 320.930909 83.4048 
L 324.538182 81.792 
L 328.145455 80.1792 
L 331.752727 78.5664 
L 335.36 76.9536 
L 338.967273 75.3408 
L 342.574545 73.728 
L 346.181818 72.1152 
L 349.789091 70.5024 
L 353.396364 68.8896 
L 357.003636 67.2768 
L 360.610909 65.664 
L 364.218182 64.0512 
L 367.825455 62.4384 
L 371.432727 60.8256 
L 375.04 59.2128 
L 378.647273 57.6 
L 382.254545 55.9872 
L 385.861818 54.3744 
L 389.469091 52.7616 
L 393.076364 51.1488 
L 396.683636 49.536 
L 400.290909 47.9232 
L 403.898182 46.3104 
L 407.505455 44.6976 
L 411.112727 43.0848 
L 414.72 41.472 
" clip-path="url(#p5101f69643)" style="fill: none; stroke-dasharray: 3.7,1.6; stroke-dashoffset: 0; stroke: #b1b2b0"/>
   </g>
   <g id="line2d_92">
    <path d="M 57.6 147.9168 
L 61.207273 146.304 
L 64.814545 144.6912 
L 68.421818 143.0784 
L 72.029091 141.4656 
L 75.636364 139.8528 
L 79.243636 138.24 
L 82.850909 136.6272 
L 86.458182 135.0144 
L 90.065455 133.4016 
L 93.672727 131.7888 
L 97.28 130.176 
L 100.887273 128.5632 
L 104.494545 126.9504 
L 108.101818 125.3376 
L 111.709091 123.7248 
L 115.316364 122.112 
L 118.923636 120.4992 
L 122.530909 118.8864 
L 126.138182 117.2736 
L 129.745455 115.6608 
L 133.352727 114.048 
L 136.96 112.4352 
L 140.567273 110.8224 
L 144.174545 109.2096 
L 147.781818 107.5968 
L 151.389091 105.984 
L 154.996364 104.3712 
L 158.603636 102.7584 
L 162.210909 101.1456 
L 165.818182 99.5328 
L 169.425455 97.92 
L 173.032727 96.3072 
L 176.64 94.6944 
L 180.247273 93.0816 
L 183.854545 91.4688 
L 187.461818 89.856 
L 191.069091 88.2432 
L 194.676364 86.6304 
L 198.283636 85.0176 
L 201.890909 83.4048 
L 205.498182 81.792 
L 209.105455 80.1792 
L 212.712727 78.5664 
L 216.32 76.9536 
L 219.927273 75.3408 
L 223.534545 73.728 
L 227.141818 72.1152 
L 230.749091 70.5024 
L 234.356364 68.8896 
L 237.963636 67.2768 
L 241.570909 65.664 
L 245.178182 64.0512 
L 248.785455 62.4384 
L 252.392727 60.8256 
L 256 59.2128 
L 259.607273 57.6 
L 263.214545 55.9872 
L 266.821818 54.3744 
L 270.429091 52.7616 
L 274.036364 51.1488 
L 277.643636 49.536 
L 281.250909 47.9232 
L 284.858182 46.3104 
L 288.465455 44.6976 
L 292.072727 43.0848 
L 295.68 41.472 
L 299.287273 39.8592 
L 302.894545 38.2464 
L 306.501818 36.6336 
L 310.109091 35.0208 
L 313.716364 33.408 
L 317.323636 31.7952 
L 320.930909 30.1824 
L 324.538182 28.5696 
L 328.145455 26.9568 
L 331.752727 25.344 
L 335.36 23.7312 
L 338.967273 22.1184 
L 342.574545 20.5056 
L 346.181818 18.8928 
L 349.789091 17.28 
L 353.396364 15.6672 
L 357.003636 14.0544 
L 360.610909 12.4416 
L 364.218182 10.8288 
L 367.825455 9.216 
L 371.432727 7.6032 
L 375.04 5.9904 
L 378.647273 4.3776 
L 382.254545 2.7648 
L 385.861818 1.152 
L 389.469091 -0.4608 
L 390.675094 -1 
" clip-path="url(#p5101f69643)" style="fill: none; stroke-dasharray: 3.7,1.6; stroke-dashoffset: 0; stroke: #b1b2b0"/>
   </g>
   <g id="LineCollection_1">
    <path d="M 95.250559 126.538995 
L 96.702442 126.538995 
" clip-path="url(#p5101f69643)" style="fill: none; stroke: #fdbf5c; stroke-width: 1.5"/>
    <path d="M 117.490147 121.995473 
L 118.930754 121.995473 
" clip-path="url(#p5101f69643)" style="fill: none; stroke: #fdbf5c; stroke-width: 1.5"/>
    <path d="M 126.535746 126.905154 
L 127.185708 126.905154 
" clip-path="url(#p5101f69643)" style="fill: none; stroke: #fdbf5c; stroke-width: 1.5"/>
    <path d="M 138.327457 135.733206 
L 139.908441 135.733206 
" clip-path="url(#p5101f69643)" style="fill: none; stroke: #fdbf5c; stroke-width: 1.5"/>
    <path d="M 146.214607 139.963692 
L 147.873277 139.963692 
" clip-path="url(#p5101f69643)" style="fill: none; stroke: #fdbf5c; stroke-width: 1.5"/>
    <path d="M 147.579343 128.542895 
L 149.010532 128.542895 
" clip-path="url(#p5101f69643)" style="fill: none; stroke: #fdbf5c; stroke-width: 1.5"/>
    <path d="M 148.2641 119.058803 
L 148.833785 119.058803 
" clip-path="url(#p5101f69643)" style="fill: none; stroke: #fdbf5c; stroke-width: 1.5"/>
    <path d="M 151.532906 129.738413 
L 153.511088 129.738413 
" clip-path="url(#p5101f69643)" style="fill: none; stroke: #fdbf5c; stroke-width: 1.5"/>
   </g>
   <g id="LineCollection_2">
    <path d="M 95.981597 133.188535 
L 95.981597 121.381212 
" clip-path="url(#p5101f69643)" style="fill: none; stroke: #fdbf5c; stroke-width: 1.5"/>
    <path d="M 118.215468 129.054196 
L 118.215468 116.595611 
" clip-path="url(#p5101f69643)" style="fill: none; stroke: #fdbf5c; stroke-width: 1.5"/>
    <path d="M 126.861748 132.969516 
L 126.861748 122.105723 
" clip-path="url(#p5101f69643)" style="fill: none; stroke: #fdbf5c; stroke-width: 1.5"/>
    <path d="M 139.123992 143.510573 
L 139.123992 129.92423 
" clip-path="url(#p5101f69643)" style="fill: none; stroke: #fdbf5c; stroke-width: 1.5"/>
    <path d="M 147.050594 145.121517 
L 147.050594 135.749449 
" clip-path="url(#p5101f69643)" style="fill: none; stroke: #fdbf5c; stroke-width: 1.5"/>
    <path d="M 148.29989 135.192501 
L 148.29989 123.385071 
" clip-path="url(#p5101f69643)" style="fill: none; stroke: #fdbf5c; stroke-width: 1.5"/>
    <path d="M 148.549727 123.273019 
L 148.549727 115.495735 
" clip-path="url(#p5101f69643)" style="fill: none; stroke: #fdbf5c; stroke-width: 1.5"/>
    <path d="M 152.531458 133.301499 
L 152.531458 126.651929 
" clip-path="url(#p5101f69643)" style="fill: none; stroke: #fdbf5c; stroke-width: 1.5"/>
   </g>
   <g id="line2d_93">
    <defs>
     <path id="mf6a783f8da" d="M 0 3 
L 0 -3 
" style="stroke: #fdbf5c"/>
    </defs>
    <g clip-path="url(#p5101f69643)">
     <use xlink:href="#mf6a783f8da" x="95.250559" y="126.538995" style="fill: #fdbf5c; stroke: #fdbf5c"/>
     <use xlink:href="#mf6a783f8da" x="117.490147" y="121.995473" style="fill: #fdbf5c; stroke: #fdbf5c"/>
     <use xlink:href="#mf6a783f8da" x="126.535746" y="126.905154" style="fill: #fdbf5c; stroke: #fdbf5c"/>
     <use xlink:href="#mf6a783f8da" x="138.327457" y="135.733206" style="fill: #fdbf5c; stroke: #fdbf5c"/>
     <use xlink:href="#mf6a783f8da" x="146.214607" y="139.963692" style="fill: #fdbf5c; stroke: #fdbf5c"/>
     <use xlink:href="#mf6a783f8da" x="147.579343" y="128.542895" style="fill: #fdbf5c; stroke: #fdbf5c"/>
     <use xlink:href="#mf6a783f8da" x="148.2641" y="119.058803" style="fill: #fdbf5c; stroke: #fdbf5c"/>
     <use xlink:href="#mf6a783f8da" x="151.532906" y="129.738413" style="fill: #fdbf5c; stroke: #fdbf5c"/>
    </g>
   </g>
   <g id="line2d_94">
    <g clip-path="url(#p5101f69643)">
     <use xlink:href="#mf6a783f8da" x="96.702442" y="126.538995" style="fill: #fdbf5c; stroke: #fdbf5c"/>
     <use xlink:href="#mf6a783f8da" x="118.930754" y="121.995473" style="fill: #fdbf5c; stroke: #fdbf5c"/>
     <use xlink:href="#mf6a783f8da" x="127.185708" y="126.905154" style="fill: #fdbf5c; stroke: #fdbf5c"/>
     <use xlink:href="#mf6a783f8da" x="139.908441" y="135.733206" style="fill: #fdbf5c; stroke: #fdbf5c"/>
     <use xlink:href="#mf6a783f8da" x="147.873277" y="139.963692" style="fill: #fdbf5c; stroke: #fdbf5c"/>
     <use xlink:href="#mf6a783f8da" x="149.010532" y="128.542895" style="fill: #fdbf5c; stroke: #fdbf5c"/>
     <use xlink:href="#mf6a783f8da" x="148.833785" y="119.058803" style="fill: #fdbf5c; stroke: #fdbf5c"/>
     <use xlink:href="#mf6a783f8da" x="153.511088" y="129.738413" style="fill: #fdbf5c; stroke: #fdbf5c"/>
    </g>
   </g>
   <g id="line2d_95">
    <defs>
     <path id="m03e319415b" d="M 3 0 
L -3 -0 
" style="stroke: #fdbf5c"/>
    </defs>
    <g clip-path="url(#p5101f69643)">
     <use xlink:href="#m03e319415b" x="95.981597" y="133.188535" style="fill: #fdbf5c; stroke: #fdbf5c"/>
     <use xlink:href="#m03e319415b" x="118.215468" y="129.054196" style="fill: #fdbf5c; stroke: #fdbf5c"/>
     <use xlink:href="#m03e319415b" x="126.861748" y="132.969516" style="fill: #fdbf5c; stroke: #fdbf5c"/>
     <use xlink:href="#m03e319415b" x="139.123992" y="143.510573" style="fill: #fdbf5c; stroke: #fdbf5c"/>
     <use xlink:href="#m03e319415b" x="147.050594" y="145.121517" style="fill: #fdbf5c; stroke: #fdbf5c"/>
     <use xlink:href="#m03e319415b" x="148.29989" y="135.192501" style="fill: #fdbf5c; stroke: #fdbf5c"/>
     <use xlink:href="#m03e319415b" x="148.549727" y="123.273019" style="fill: #fdbf5c; stroke: #fdbf5c"/>
     <use xlink:href="#m03e319415b" x="152.531458" y="133.301499" style="fill: #fdbf5c; stroke: #fdbf5c"/>
    </g>
   </g>
   <g id="line2d_96">
    <g clip-path="url(#p5101f69643)">
     <use xlink:href="#m03e319415b" x="95.981597" y="121.381212" style="fill: #fdbf5c; stroke: #fdbf5c"/>
     <use xlink:href="#m03e319415b" x="118.215468" y="116.595611" style="fill: #fdbf5c; stroke: #fdbf5c"/>
     <use xlink:href="#m03e319415b" x="126.861748" y="122.105723" style="fill: #fdbf5c; stroke: #fdbf5c"/>
     <use xlink:href="#m03e319415b" x="139.123992" y="129.92423" style="fill: #fdbf5c; stroke: #fdbf5c"/>
     <use xlink:href="#m03e319415b" x="147.050594" y="135.749449" style="fill: #fdbf5c; stroke: #fdbf5c"/>
     <use xlink:href="#m03e319415b" x="148.29989" y="123.385071" style="fill: #fdbf5c; stroke: #fdbf5c"/>
     <use xlink:href="#m03e319415b" x="148.549727" y="115.495735" style="fill: #fdbf5c; stroke: #fdbf5c"/>
     <use xlink:href="#m03e319415b" x="152.531458" y="126.651929" style="fill: #fdbf5c; stroke: #fdbf5c"/>
    </g>
   </g>
   <g id="LineCollection_3">
    <path d="M 102.989431 196.727434 
L 118.375278 196.727434 
" clip-path="url(#p5101f69643)" style="fill: none; stroke: #1d3e40; stroke-width: 1.5"/>
    <path d="M 129.501342 245.853049 
L 146.497862 245.853049 
" clip-path="url(#p5101f69643)" style="fill: none; stroke: #1d3e40; stroke-width: 1.5"/>
    <path d="M 141.524147 193.472799 
L 150.574637 193.472799 
" clip-path="url(#p5101f69643)" style="fill: none; stroke: #1d3e40; stroke-width: 1.5"/>
    <path d="M 150.557516 184.765554 
L 158.156139 184.765554 
" clip-path="url(#p5101f69643)" style="fill: none; stroke: #1d3e40; stroke-width: 1.5"/>
    <path d="M 176.707164 137.840637 
L 193.71281 137.840637 
" clip-path="url(#p5101f69643)" style="fill: none; stroke: #1d3e40; stroke-width: 1.5"/>
   </g>
   <g id="LineCollection_4">
    <path d="M 110.589105 221.495462 
L 110.589105 171.393175 
" clip-path="url(#p5101f69643)" style="fill: none; stroke: #1d3e40; stroke-width: 1.5"/>
    <path d="M 137.815101 268.733017 
L 137.815101 223.165981 
" clip-path="url(#p5101f69643)" style="fill: none; stroke: #1d3e40; stroke-width: 1.5"/>
    <path d="M 146.051381 213.70225 
L 146.051381 173.430846 
" clip-path="url(#p5101f69643)" style="fill: none; stroke: #1d3e40; stroke-width: 1.5"/>
    <path d="M 154.353296 203.672323 
L 154.353296 165.480446 
" clip-path="url(#p5101f69643)" style="fill: none; stroke: #1d3e40; stroke-width: 1.5"/>
    <path d="M 185.209976 158.82683 
L 185.209976 117.23211 
" clip-path="url(#p5101f69643)" style="fill: none; stroke: #1d3e40; stroke-width: 1.5"/>
   </g>
   <g id="line2d_97">
    <defs>
     <path id="m4b55dffdb6" d="M 0 3 
L 0 -3 
" style="stroke: #1d3e40"/>
    </defs>
    <g clip-path="url(#p5101f69643)">
     <use xlink:href="#m4b55dffdb6" x="102.989431" y="196.727434" style="fill: #1d3e40; stroke: #1d3e40"/>
     <use xlink:href="#m4b55dffdb6" x="129.501342" y="245.853049" style="fill: #1d3e40; stroke: #1d3e40"/>
     <use xlink:href="#m4b55dffdb6" x="141.524147" y="193.472799" style="fill: #1d3e40; stroke: #1d3e40"/>
     <use xlink:href="#m4b55dffdb6" x="150.557516" y="184.765554" style="fill: #1d3e40; stroke: #1d3e40"/>
     <use xlink:href="#m4b55dffdb6" x="176.707164" y="137.840637" style="fill: #1d3e40; stroke: #1d3e40"/>
    </g>
   </g>
   <g id="line2d_98">
    <g clip-path="url(#p5101f69643)">
     <use xlink:href="#m4b55dffdb6" x="118.375278" y="196.727434" style="fill: #1d3e40; stroke: #1d3e40"/>
     <use xlink:href="#m4b55dffdb6" x="146.497862" y="245.853049" style="fill: #1d3e40; stroke: #1d3e40"/>
     <use xlink:href="#m4b55dffdb6" x="150.574637" y="193.472799" style="fill: #1d3e40; stroke: #1d3e40"/>
     <use xlink:href="#m4b55dffdb6" x="158.156139" y="184.765554" style="fill: #1d3e40; stroke: #1d3e40"/>
     <use xlink:href="#m4b55dffdb6" x="193.71281" y="137.840637" style="fill: #1d3e40; stroke: #1d3e40"/>
    </g>
   </g>
   <g id="line2d_99">
    <defs>
     <path id="m105dc53eb1" d="M 3 0 
L -3 -0 
" style="stroke: #1d3e40"/>
    </defs>
    <g clip-path="url(#p5101f69643)">
     <use xlink:href="#m105dc53eb1" x="110.589105" y="221.495462" style="fill: #1d3e40; stroke: #1d3e40"/>
     <use xlink:href="#m105dc53eb1" x="137.815101" y="268.733017" style="fill: #1d3e40; stroke: #1d3e40"/>
     <use xlink:href="#m105dc53eb1" x="146.051381" y="213.70225" style="fill: #1d3e40; stroke: #1d3e40"/>
     <use xlink:href="#m105dc53eb1" x="154.353296" y="203.672323" style="fill: #1d3e40; stroke: #1d3e40"/>
     <use xlink:href="#m105dc53eb1" x="185.209976" y="158.82683" style="fill: #1d3e40; stroke: #1d3e40"/>
    </g>
   </g>
   <g id="line2d_100">
    <g clip-path="url(#p5101f69643)">
     <use xlink:href="#m105dc53eb1" x="110.589105" y="171.393175" style="fill: #1d3e40; stroke: #1d3e40"/>
     <use xlink:href="#m105dc53eb1" x="137.815101" y="223.165981" style="fill: #1d3e40; stroke: #1d3e40"/>
     <use xlink:href="#m105dc53eb1" x="146.051381" y="173.430846" style="fill: #1d3e40; stroke: #1d3e40"/>
     <use xlink:href="#m105dc53eb1" x="154.353296" y="165.480446" style="fill: #1d3e40; stroke: #1d3e40"/>
     <use xlink:href="#m105dc53eb1" x="185.209976" y="117.23211" style="fill: #1d3e40; stroke: #1d3e40"/>
    </g>
   </g>
   <g id="LineCollection_5">
    <path d="M 147.533973 215.958268 
L 169.783884 215.958268 
" clip-path="url(#p5101f69643)" style="fill: none; stroke: #1d24a4; stroke-width: 1.5"/>
    <path d="M 168.523103 217.253381 
L 191.859215 217.253381 
" clip-path="url(#p5101f69643)" style="fill: none; stroke: #1d24a4; stroke-width: 1.5"/>
    <path d="M 177.133938 176.983229 
L 183.104654 176.983229 
" clip-path="url(#p5101f69643)" style="fill: none; stroke: #1d24a4; stroke-width: 1.5"/>
    <path d="M 173.633276 139.545743 
L 190.639424 139.545743 
" clip-path="url(#p5101f69643)" style="fill: none; stroke: #1d24a4; stroke-width: 1.5"/>
    <path d="M 186.729231 181.129914 
L 195.77789 181.129914 
" clip-path="url(#p5101f69643)" style="fill: none; stroke: #1d24a4; stroke-width: 1.5"/>
    <path d="M 187.304463 199.657559 
L 196.349541 199.657559 
" clip-path="url(#p5101f69643)" style="fill: none; stroke: #1d24a4; stroke-width: 1.5"/>
    <path d="M 204.869316 209.088166 
L 215.723026 209.088166 
" clip-path="url(#p5101f69643)" style="fill: none; stroke: #1d24a4; stroke-width: 1.5"/>
   </g>
   <g id="LineCollection_6">
    <path d="M 158.751436 242.232923 
L 158.751436 188.919068 
" clip-path="url(#p5101f69643)" style="fill: none; stroke: #1d24a4; stroke-width: 1.5"/>
    <path d="M 180.282591 245.425143 
L 180.282591 188.516625 
" clip-path="url(#p5101f69643)" style="fill: none; stroke: #1d24a4; stroke-width: 1.5"/>
    <path d="M 180.210269 194.377828 
L 180.210269 159.778119 
" clip-path="url(#p5101f69643)" style="fill: none; stroke: #1d24a4; stroke-width: 1.5"/>
    <path d="M 182.137611 158.263086 
L 182.137611 120.639097 
" clip-path="url(#p5101f69643)" style="fill: none; stroke: #1d24a4; stroke-width: 1.5"/>
    <path d="M 191.254866 199.84694 
L 191.254866 161.467078 
" clip-path="url(#p5101f69643)" style="fill: none; stroke: #1d24a4; stroke-width: 1.5"/>
    <path d="M 191.828394 218.186314 
L 191.828394 181.507422 
" clip-path="url(#p5101f69643)" style="fill: none; stroke: #1d24a4; stroke-width: 1.5"/>
    <path d="M 210.296819 227.054019 
L 210.296819 190.370988 
" clip-path="url(#p5101f69643)" style="fill: none; stroke: #1d24a4; stroke-width: 1.5"/>
   </g>
   <g id="line2d_101">
    <defs>
     <path id="m1284f2a922" d="M 0 3 
L 0 -3 
" style="stroke: #1d24a4"/>
    </defs>
    <g clip-path="url(#p5101f69643)">
     <use xlink:href="#m1284f2a922" x="147.533973" y="215.958268" style="fill: #1d24a4; stroke: #1d24a4"/>
     <use xlink:href="#m1284f2a922" x="168.523103" y="217.253381" style="fill: #1d24a4; stroke: #1d24a4"/>
     <use xlink:href="#m1284f2a922" x="177.133938" y="176.983229" style="fill: #1d24a4; stroke: #1d24a4"/>
     <use xlink:href="#m1284f2a922" x="173.633276" y="139.545743" style="fill: #1d24a4; stroke: #1d24a4"/>
     <use xlink:href="#m1284f2a922" x="186.729231" y="181.129914" style="fill: #1d24a4; stroke: #1d24a4"/>
     <use xlink:href="#m1284f2a922" x="187.304463" y="199.657559" style="fill: #1d24a4; stroke: #1d24a4"/>
     <use xlink:href="#m1284f2a922" x="204.869316" y="209.088166" style="fill: #1d24a4; stroke: #1d24a4"/>
    </g>
   </g>
   <g id="line2d_102">
    <g clip-path="url(#p5101f69643)">
     <use xlink:href="#m1284f2a922" x="169.783884" y="215.958268" style="fill: #1d24a4; stroke: #1d24a4"/>
     <use xlink:href="#m1284f2a922" x="191.859215" y="217.253381" style="fill: #1d24a4; stroke: #1d24a4"/>
     <use xlink:href="#m1284f2a922" x="183.104654" y="176.983229" style="fill: #1d24a4; stroke: #1d24a4"/>
     <use xlink:href="#m1284f2a922" x="190.639424" y="139.545743" style="fill: #1d24a4; stroke: #1d24a4"/>
     <use xlink:href="#m1284f2a922" x="195.77789" y="181.129914" style="fill: #1d24a4; stroke: #1d24a4"/>
     <use xlink:href="#m1284f2a922" x="196.349541" y="199.657559" style="fill: #1d24a4; stroke: #1d24a4"/>
     <use xlink:href="#m1284f2a922" x="215.723026" y="209.088166" style="fill: #1d24a4; stroke: #1d24a4"/>
    </g>
   </g>
   <g id="line2d_103">
    <defs>
     <path id="maf0a2e7d34" d="M 3 0 
L -3 -0 
" style="stroke: #1d24a4"/>
    </defs>
    <g clip-path="url(#p5101f69643)">
     <use xlink:href="#maf0a2e7d34" x="158.751436" y="242.232923" style="fill: #1d24a4; stroke: #1d24a4"/>
     <use xlink:href="#maf0a2e7d34" x="180.282591" y="245.425143" style="fill: #1d24a4; stroke: #1d24a4"/>
     <use xlink:href="#maf0a2e7d34" x="180.210269" y="194.377828" style="fill: #1d24a4; stroke: #1d24a4"/>
     <use xlink:href="#maf0a2e7d34" x="182.137611" y="158.263086" style="fill: #1d24a4; stroke: #1d24a4"/>
     <use xlink:href="#maf0a2e7d34" x="191.254866" y="199.84694" style="fill: #1d24a4; stroke: #1d24a4"/>
     <use xlink:href="#maf0a2e7d34" x="191.828394" y="218.186314" style="fill: #1d24a4; stroke: #1d24a4"/>
     <use xlink:href="#maf0a2e7d34" x="210.296819" y="227.054019" style="fill: #1d24a4; stroke: #1d24a4"/>
    </g>
   </g>
   <g id="line2d_104">
    <g clip-path="url(#p5101f69643)">
     <use xlink:href="#maf0a2e7d34" x="158.751436" y="188.919068" style="fill: #1d24a4; stroke: #1d24a4"/>
     <use xlink:href="#maf0a2e7d34" x="180.282591" y="188.516625" style="fill: #1d24a4; stroke: #1d24a4"/>
     <use xlink:href="#maf0a2e7d34" x="180.210269" y="159.778119" style="fill: #1d24a4; stroke: #1d24a4"/>
     <use xlink:href="#maf0a2e7d34" x="182.137611" y="120.639097" style="fill: #1d24a4; stroke: #1d24a4"/>
     <use xlink:href="#maf0a2e7d34" x="191.254866" y="161.467078" style="fill: #1d24a4; stroke: #1d24a4"/>
     <use xlink:href="#maf0a2e7d34" x="191.828394" y="181.507422" style="fill: #1d24a4; stroke: #1d24a4"/>
     <use xlink:href="#maf0a2e7d34" x="210.296819" y="190.370988" style="fill: #1d24a4; stroke: #1d24a4"/>
    </g>
   </g>
   <g id="LineCollection_7">
    <path d="M 306.535072 207.835014 
L 320.283531 207.835014 
" clip-path="url(#p5101f69643)" style="fill: none; stroke: #565a5c; stroke-width: 1.5"/>
    <path d="M 303.448811 201.401877 
L 327.68939 201.401877 
" clip-path="url(#p5101f69643)" style="fill: none; stroke: #565a5c; stroke-width: 1.5"/>
    <path d="M 302.331819 182.876851 
L 325.125958 182.876851 
" clip-path="url(#p5101f69643)" style="fill: none; stroke: #565a5c; stroke-width: 1.5"/>
    <path d="M 311.925396 186.082908 
L 329.291774 186.082908 
" clip-path="url(#p5101f69643)" style="fill: none; stroke: #565a5c; stroke-width: 1.5"/>
    <path d="M 318.440379 187.966293 
L 335.084156 187.966293 
" clip-path="url(#p5101f69643)" style="fill: none; stroke: #565a5c; stroke-width: 1.5"/>
   </g>
   <g id="LineCollection_8">
    <path d="M 313.228472 217.285894 
L 313.228472 197.812439 
" clip-path="url(#p5101f69643)" style="fill: none; stroke: #565a5c; stroke-width: 1.5"/>
    <path d="M 315.569313 218.79842 
L 315.569313 183.630601 
" clip-path="url(#p5101f69643)" style="fill: none; stroke: #565a5c; stroke-width: 1.5"/>
    <path d="M 313.548166 197.056337 
L 313.548166 168.507902 
" clip-path="url(#p5101f69643)" style="fill: none; stroke: #565a5c; stroke-width: 1.5"/>
    <path d="M 320.608858 205.745974 
L 320.608858 166.230286 
" clip-path="url(#p5101f69643)" style="fill: none; stroke: #565a5c; stroke-width: 1.5"/>
    <path d="M 326.762599 207.816493 
L 326.762599 167.735659 
" clip-path="url(#p5101f69643)" style="fill: none; stroke: #565a5c; stroke-width: 1.5"/>
   </g>
   <g id="line2d_105">
    <defs>
     <path id="md42d6fb94c" d="M 0 3 
L 0 -3 
" style="stroke: #565a5c"/>
    </defs>
    <g clip-path="url(#p5101f69643)">
     <use xlink:href="#md42d6fb94c" x="306.535072" y="207.835014" style="fill: #565a5c; stroke: #565a5c"/>
     <use xlink:href="#md42d6fb94c" x="303.448811" y="201.401877" style="fill: #565a5c; stroke: #565a5c"/>
     <use xlink:href="#md42d6fb94c" x="302.331819" y="182.876851" style="fill: #565a5c; stroke: #565a5c"/>
     <use xlink:href="#md42d6fb94c" x="311.925396" y="186.082908" style="fill: #565a5c; stroke: #565a5c"/>
     <use xlink:href="#md42d6fb94c" x="318.440379" y="187.966293" style="fill: #565a5c; stroke: #565a5c"/>
    </g>
   </g>
   <g id="line2d_106">
    <g clip-path="url(#p5101f69643)">
     <use xlink:href="#md42d6fb94c" x="320.283531" y="207.835014" style="fill: #565a5c; stroke: #565a5c"/>
     <use xlink:href="#md42d6fb94c" x="327.68939" y="201.401877" style="fill: #565a5c; stroke: #565a5c"/>
     <use xlink:href="#md42d6fb94c" x="325.125958" y="182.876851" style="fill: #565a5c; stroke: #565a5c"/>
     <use xlink:href="#md42d6fb94c" x="329.291774" y="186.082908" style="fill: #565a5c; stroke: #565a5c"/>
     <use xlink:href="#md42d6fb94c" x="335.084156" y="187.966293" style="fill: #565a5c; stroke: #565a5c"/>
    </g>
   </g>
   <g id="line2d_107">
    <defs>
     <path id="m8da4d54ed5" d="M 3 0 
L -3 -0 
" style="stroke: #565a5c"/>
    </defs>
    <g clip-path="url(#p5101f69643)">
     <use xlink:href="#m8da4d54ed5" x="313.228472" y="217.285894" style="fill: #565a5c; stroke: #565a5c"/>
     <use xlink:href="#m8da4d54ed5" x="315.569313" y="218.79842" style="fill: #565a5c; stroke: #565a5c"/>
     <use xlink:href="#m8da4d54ed5" x="313.548166" y="197.056337" style="fill: #565a5c; stroke: #565a5c"/>
     <use xlink:href="#m8da4d54ed5" x="320.608858" y="205.745974" style="fill: #565a5c; stroke: #565a5c"/>
     <use xlink:href="#m8da4d54ed5" x="326.762599" y="207.816493" style="fill: #565a5c; stroke: #565a5c"/>
    </g>
   </g>
   <g id="line2d_108">
    <g clip-path="url(#p5101f69643)">
     <use xlink:href="#m8da4d54ed5" x="313.228472" y="197.812439" style="fill: #565a5c; stroke: #565a5c"/>
     <use xlink:href="#m8da4d54ed5" x="315.569313" y="183.630601" style="fill: #565a5c; stroke: #565a5c"/>
     <use xlink:href="#m8da4d54ed5" x="313.548166" y="168.507902" style="fill: #565a5c; stroke: #565a5c"/>
     <use xlink:href="#m8da4d54ed5" x="320.608858" y="166.230286" style="fill: #565a5c; stroke: #565a5c"/>
     <use xlink:href="#m8da4d54ed5" x="326.762599" y="167.735659" style="fill: #565a5c; stroke: #565a5c"/>
    </g>
   </g>
   <g id="line2d_109"/>
   <g id="line2d_110"/>
   <g id="line2d_111"/>
   <g id="line2d_112"/>
   <g id="patch_3">
    <path d="M 57.6 307.584 
L 57.6 41.472 
" style="fill: none; stroke: #262626; stroke-width: 1.65; stroke-linejoin: miter; stroke-linecap: square"/>
   </g>
   <g id="patch_4">
    <path d="M 414.72 307.584 
L 414.72 41.472 
" style="fill: none; stroke: #262626; stroke-width: 1.65; stroke-linejoin: miter; stroke-linecap: square"/>
   </g>
   <g id="patch_5">
    <path d="M 57.6 307.584 
L 414.72 307.584 
" style="fill: none; stroke: #262626; stroke-width: 1.65; stroke-linejoin: miter; stroke-linecap: square"/>
   </g>
   <g id="patch_6">
    <path d="M 57.6 41.472 
L 414.72 41.472 
" style="fill: none; stroke: #262626; stroke-width: 1.65; stroke-linejoin: miter; stroke-linecap: square"/>
   </g>
   <g id="text_13">
    <!-- $ \sigma/m = 0.001 \mathrm{cm^2/g}$ -->
    <g style="fill: #b1b2b0" transform="translate(298.792383 298.338646) rotate(-20) scale(0.1 -0.1)">
     <defs>
      <path id="DejaVuSans-3d" d="M 678 2906 
L 4684 2906 
L 4684 2381 
L 678 2381 
L 678 2906 
z
M 678 1631 
L 4684 1631 
L 4684 1100 
L 678 1100 
L 678 1631 
z
" transform="scale(0.015625)"/>
      <path id="DejaVuSans-30" d="M 2034 4250 
Q 1547 4250 1301 3770 
Q 1056 3291 1056 2328 
Q 1056 1369 1301 889 
Q 1547 409 2034 409 
Q 2525 409 2770 889 
Q 3016 1369 3016 2328 
Q 3016 3291 2770 3770 
Q 2525 4250 2034 4250 
z
M 2034 4750 
Q 2819 4750 3233 4129 
Q 3647 3509 3647 2328 
Q 3647 1150 3233 529 
Q 2819 -91 2034 -91 
Q 1250 -91 836 529 
Q 422 1150 422 2328 
Q 422 3509 836 4129 
Q 1250 4750 2034 4750 
z
" transform="scale(0.015625)"/>
      <path id="DejaVuSans-2e" d="M 684 794 
L 1344 794 
L 1344 0 
L 684 0 
L 684 794 
z
" transform="scale(0.015625)"/>
      <path id="DejaVuSans-31" d="M 794 531 
L 1825 531 
L 1825 4091 
L 703 3866 
L 703 4441 
L 1819 4666 
L 2450 4666 
L 2450 531 
L 3481 531 
L 3481 0 
L 794 0 
L 794 531 
z
" transform="scale(0.015625)"/>
     </defs>
     <use xlink:href="#DejaVuSans-Oblique-3c3" transform="translate(0 0.765625)"/>
     <use xlink:href="#DejaVuSans-2f" transform="translate(63.378906 0.765625)"/>
     <use xlink:href="#DejaVuSans-Oblique-6d" transform="translate(97.070312 0.765625)"/>
     <use xlink:href="#DejaVuSans-3d" transform="translate(213.964844 0.765625)"/>
     <use xlink:href="#DejaVuSans-30" transform="translate(317.236328 0.765625)"/>
     <use xlink:href="#DejaVuSans-2e" transform="translate(380.859375 0.765625)"/>
     <use xlink:href="#DejaVuSans-30" transform="translate(412.646484 0.765625)"/>
     <use xlink:href="#DejaVuSans-30" transform="translate(476.269531 0.765625)"/>
     <use xlink:href="#DejaVuSans-31" transform="translate(539.892578 0.765625)"/>
     <use xlink:href="#DejaVuSans-63" transform="translate(603.515625 0.765625)"/>
     <use xlink:href="#DejaVuSans-6d" transform="translate(658.496094 0.765625)"/>
     <use xlink:href="#DejaVuSans-32" transform="translate(756.865234 39.046875) scale(0.7)"/>
     <use xlink:href="#DejaVuSans-2f" transform="translate(804.135742 0.765625)"/>
     <use xlink:href="#DejaVuSans-67" transform="translate(837.827148 0.765625)"/>
    </g>
   </g>
   <g id="text_14">
    <!-- $ \sigma/m = 0.01 \mathrm{cm^2/g}$ -->
    <g style="fill: #b1b2b0" transform="translate(179.752383 298.338646) rotate(-20) scale(0.1 -0.1)">
     <use xlink:href="#DejaVuSans-Oblique-3c3" transform="translate(0 0.765625)"/>
     <use xlink:href="#DejaVuSans-2f" transform="translate(63.378906 0.765625)"/>
     <use xlink:href="#DejaVuSans-Oblique-6d" transform="translate(97.070312 0.765625)"/>
     <use xlink:href="#DejaVuSans-3d" transform="translate(213.964844 0.765625)"/>
     <use xlink:href="#DejaVuSans-30" transform="translate(317.236328 0.765625)"/>
     <use xlink:href="#DejaVuSans-2e" transform="translate(380.859375 0.765625)"/>
     <use xlink:href="#DejaVuSans-30" transform="translate(412.646484 0.765625)"/>
     <use xlink:href="#DejaVuSans-31" transform="translate(476.269531 0.765625)"/>
     <use xlink:href="#DejaVuSans-63" transform="translate(539.892578 0.765625)"/>
     <use xlink:href="#DejaVuSans-6d" transform="translate(594.873047 0.765625)"/>
     <use xlink:href="#DejaVuSans-32" transform="translate(693.242188 39.046875) scale(0.7)"/>
     <use xlink:href="#DejaVuSans-2f" transform="translate(740.512695 0.765625)"/>
     <use xlink:href="#DejaVuSans-67" transform="translate(774.204102 0.765625)"/>
    </g>
   </g>
   <g id="text_15">
    <!-- $ \sigma/m = 0.1 \mathrm{cm^2/g}$ -->
    <g style="fill: #b1b2b0" transform="translate(60.712383 298.338646) rotate(-20) scale(0.1 -0.1)">
     <use xlink:href="#DejaVuSans-Oblique-3c3" transform="translate(0 0.765625)"/>
     <use xlink:href="#DejaVuSans-2f" transform="translate(63.378906 0.765625)"/>
     <use xlink:href="#DejaVuSans-Oblique-6d" transform="translate(97.070312 0.765625)"/>
     <use xlink:href="#DejaVuSans-3d" transform="translate(213.964844 0.765625)"/>
     <use xlink:href="#DejaVuSans-30" transform="translate(317.236328 0.765625)"/>
     <use xlink:href="#DejaVuSans-2e" transform="translate(380.859375 0.765625)"/>
     <use xlink:href="#DejaVuSans-31" transform="translate(412.646484 0.765625)"/>
     <use xlink:href="#DejaVuSans-63" transform="translate(476.269531 0.765625)"/>
     <use xlink:href="#DejaVuSans-6d" transform="translate(531.25 0.765625)"/>
     <use xlink:href="#DejaVuSans-32" transform="translate(629.619141 39.046875) scale(0.7)"/>
     <use xlink:href="#DejaVuSans-2f" transform="translate(676.889648 0.765625)"/>
     <use xlink:href="#DejaVuSans-67" transform="translate(710.581055 0.765625)"/>
    </g>
   </g>
   <g id="text_16">
    <!-- $ \sigma/m = 10 \mathrm{cm^2/g}$ -->
    <g style="fill: #b1b2b0" transform="translate(60.712383 191.893846) rotate(-20) scale(0.1 -0.1)">
     <use xlink:href="#DejaVuSans-Oblique-3c3" transform="translate(0 0.765625)"/>
     <use xlink:href="#DejaVuSans-2f" transform="translate(63.378906 0.765625)"/>
     <use xlink:href="#DejaVuSans-Oblique-6d" transform="translate(97.070312 0.765625)"/>
     <use xlink:href="#DejaVuSans-3d" transform="translate(213.964844 0.765625)"/>
     <use xlink:href="#DejaVuSans-31" transform="translate(317.236328 0.765625)"/>
     <use xlink:href="#DejaVuSans-30" transform="translate(380.859375 0.765625)"/>
     <use xlink:href="#DejaVuSans-63" transform="translate(444.482422 0.765625)"/>
     <use xlink:href="#DejaVuSans-6d" transform="translate(499.462891 0.765625)"/>
     <use xlink:href="#DejaVuSans-32" transform="translate(597.832031 39.046875) scale(0.7)"/>
     <use xlink:href="#DejaVuSans-2f" transform="translate(645.102539 0.765625)"/>
     <use xlink:href="#DejaVuSans-67" transform="translate(678.793945 0.765625)"/>
    </g>
   </g>
   <g id="text_17">
    <!-- $ \sigma/m = 100 \mathrm{cm^2/g}$ -->
    <g style="fill: #b1b2b0" transform="translate(179.752383 85.449046) rotate(-20) scale(0.1 -0.1)">
     <use xlink:href="#DejaVuSans-Oblique-3c3" transform="translate(0 0.765625)"/>
     <use xlink:href="#DejaVuSans-2f" transform="translate(63.378906 0.765625)"/>
     <use xlink:href="#DejaVuSans-Oblique-6d" transform="translate(97.070312 0.765625)"/>
     <use xlink:href="#DejaVuSans-3d" transform="translate(213.964844 0.765625)"/>
     <use xlink:href="#DejaVuSans-31" transform="translate(317.236328 0.765625)"/>
     <use xlink:href="#DejaVuSans-30" transform="translate(380.859375 0.765625)"/>
     <use xlink:href="#DejaVuSans-30" transform="translate(444.482422 0.765625)"/>
     <use xlink:href="#DejaVuSans-63" transform="translate(508.105469 0.765625)"/>
     <use xlink:href="#DejaVuSans-6d" transform="translate(563.085938 0.765625)"/>
     <use xlink:href="#DejaVuSans-32" transform="translate(661.455078 39.046875) scale(0.7)"/>
     <use xlink:href="#DejaVuSans-2f" transform="translate(708.725586 0.765625)"/>
     <use xlink:href="#DejaVuSans-67" transform="translate(742.416992 0.765625)"/>
    </g>
   </g>
   <g id="legend_1">
    <g id="patch_7">
     <path d="M 64.6 107.882313 
L 117.7125 107.882313 
Q 119.7125 107.882313 119.7125 105.882313 
L 119.7125 48.472 
Q 119.7125 46.472 117.7125 46.472 
L 64.6 46.472 
Q 62.6 46.472 62.6 48.472 
L 62.6 105.882313 
Q 62.6 107.882313 64.6 107.882313 
z
" style="fill: #ffffff; opacity: 0.8; stroke: #cccccc; stroke-linejoin: miter"/>
    </g>
    <g id="text_18">
     <!-- Models -->
     <g style="fill: #262626" transform="translate(71.815625 59.061375) scale(0.12 -0.12)">
      <defs>
       <path id="ArialMT-4d" d="M 475 0 
L 475 4581 
L 1388 4581 
L 2472 1338 
Q 2622 884 2691 659 
Q 2769 909 2934 1394 
L 4031 4581 
L 4847 4581 
L 4847 0 
L 4263 0 
L 4263 3834 
L 2931 0 
L 2384 0 
L 1059 3900 
L 1059 0 
L 475 0 
z
" transform="scale(0.015625)"/>
       <path id="ArialMT-6f" d="M 213 1659 
Q 213 2581 725 3025 
Q 1153 3394 1769 3394 
Q 2453 3394 2887 2945 
Q 3322 2497 3322 1706 
Q 3322 1066 3130 698 
Q 2938 331 2570 128 
Q 2203 -75 1769 -75 
Q 1072 -75 642 372 
Q 213 819 213 1659 
z
M 791 1659 
Q 791 1022 1069 705 
Q 1347 388 1769 388 
Q 2188 388 2466 706 
Q 2744 1025 2744 1678 
Q 2744 2294 2464 2611 
Q 2184 2928 1769 2928 
Q 1347 2928 1069 2612 
Q 791 2297 791 1659 
z
" transform="scale(0.015625)"/>
       <path id="ArialMT-64" d="M 2575 0 
L 2575 419 
Q 2259 -75 1647 -75 
Q 1250 -75 917 144 
Q 584 363 401 755 
Q 219 1147 219 1656 
Q 219 2153 384 2558 
Q 550 2963 881 3178 
Q 1213 3394 1622 3394 
Q 1922 3394 2156 3267 
Q 2391 3141 2538 2938 
L 2538 4581 
L 3097 4581 
L 3097 0 
L 2575 0 
z
M 797 1656 
Q 797 1019 1065 703 
Q 1334 388 1700 388 
Q 2069 388 2326 689 
Q 2584 991 2584 1609 
Q 2584 2291 2321 2609 
Q 2059 2928 1675 2928 
Q 1300 2928 1048 2622 
Q 797 2316 797 1656 
z
" transform="scale(0.015625)"/>
       <path id="ArialMT-65" d="M 2694 1069 
L 3275 997 
Q 3138 488 2766 206 
Q 2394 -75 1816 -75 
Q 1088 -75 661 373 
Q 234 822 234 1631 
Q 234 2469 665 2931 
Q 1097 3394 1784 3394 
Q 2450 3394 2872 2941 
Q 3294 2488 3294 1666 
Q 3294 1616 3291 1516 
L 816 1516 
Q 847 969 1125 678 
Q 1403 388 1819 388 
Q 2128 388 2347 550 
Q 2566 713 2694 1069 
z
M 847 1978 
L 2700 1978 
Q 2663 2397 2488 2606 
Q 2219 2931 1791 2931 
Q 1403 2931 1139 2672 
Q 875 2413 847 1978 
z
" transform="scale(0.015625)"/>
       <path id="ArialMT-6c" d="M 409 0 
L 409 4581 
L 972 4581 
L 972 0 
L 409 0 
z
" transform="scale(0.015625)"/>
       <path id="ArialMT-73" d="M 197 991 
L 753 1078 
Q 800 744 1014 566 
Q 1228 388 1613 388 
Q 2000 388 2187 545 
Q 2375 703 2375 916 
Q 2375 1106 2209 1216 
Q 2094 1291 1634 1406 
Q 1016 1563 777 1677 
Q 538 1791 414 1992 
Q 291 2194 291 2438 
Q 291 2659 392 2848 
Q 494 3038 669 3163 
Q 800 3259 1026 3326 
Q 1253 3394 1513 3394 
Q 1903 3394 2198 3281 
Q 2494 3169 2634 2976 
Q 2775 2784 2828 2463 
L 2278 2388 
Q 2241 2644 2061 2787 
Q 1881 2931 1553 2931 
Q 1166 2931 1000 2803 
Q 834 2675 834 2503 
Q 834 2394 903 2306 
Q 972 2216 1119 2156 
Q 1203 2125 1616 2013 
Q 2213 1853 2448 1751 
Q 2684 1650 2818 1456 
Q 2953 1263 2953 975 
Q 2953 694 2789 445 
Q 2625 197 2315 61 
Q 2006 -75 1616 -75 
Q 969 -75 630 194 
Q 291 463 197 991 
z
" transform="scale(0.015625)"/>
      </defs>
      <use xlink:href="#ArialMT-4d"/>
      <use xlink:href="#ArialMT-6f" x="83.300781"/>
      <use xlink:href="#ArialMT-64" x="138.916016"/>
      <use xlink:href="#ArialMT-65" x="194.53125"/>
      <use xlink:href="#ArialMT-6c" x="250.146484"/>
      <use xlink:href="#ArialMT-73" x="272.363281"/>
     </g>
    </g>
    <g id="line2d_113">
     <path d="M 66.6 70.104188 
L 76.6 70.104188 
L 86.6 70.104188 
" style="fill: none; stroke: #9b0800; stroke-width: 1.5; stroke-linecap: round"/>
    </g>
    <g id="text_19">
     <!-- DM1 -->
     <g style="fill: #262626" transform="translate(94.6 73.604188) scale(0.1 -0.1)">
      <defs>
       <path id="ArialMT-44" d="M 494 0 
L 494 4581 
L 2072 4581 
Q 2606 4581 2888 4516 
Q 3281 4425 3559 4188 
Q 3922 3881 4101 3404 
Q 4281 2928 4281 2316 
Q 4281 1794 4159 1391 
Q 4038 988 3847 723 
Q 3656 459 3429 307 
Q 3203 156 2883 78 
Q 2563 0 2147 0 
L 494 0 
z
M 1100 541 
L 2078 541 
Q 2531 541 2789 625 
Q 3047 709 3200 863 
Q 3416 1078 3536 1442 
Q 3656 1806 3656 2325 
Q 3656 3044 3420 3430 
Q 3184 3816 2847 3947 
Q 2603 4041 2063 4041 
L 1100 4041 
L 1100 541 
z
" transform="scale(0.015625)"/>
      </defs>
      <use xlink:href="#ArialMT-44"/>
      <use xlink:href="#ArialMT-4d" x="72.216797"/>
      <use xlink:href="#ArialMT-31" x="155.517578"/>
     </g>
    </g>
    <g id="line2d_114">
     <path d="M 66.6 84.2495 
L 76.6 84.2495 
L 86.6 84.2495 
" style="fill: none; stroke-dasharray: 5.55,2.4; stroke-dashoffset: 0; stroke: #9b0800; stroke-width: 1.5"/>
    </g>
    <g id="text_20">
     <!-- DM2 -->
     <g style="fill: #262626" transform="translate(94.6 87.7495) scale(0.1 -0.1)">
      <use xlink:href="#ArialMT-44"/>
      <use xlink:href="#ArialMT-4d" x="72.216797"/>
      <use xlink:href="#ArialMT-32" x="155.517578"/>
     </g>
    </g>
    <g id="line2d_115">
     <path d="M 66.6 98.394813 
L 76.6 98.394813 
L 86.6 98.394813 
" style="fill: none; stroke-dasharray: 1.5,2.475; stroke-dashoffset: 0; stroke: #9b0800; stroke-width: 1.5"/>
    </g>
    <g id="text_21">
     <!-- DM3 -->
     <g style="fill: #262626" transform="translate(94.6 101.894813) scale(0.1 -0.1)">
      <use xlink:href="#ArialMT-44"/>
      <use xlink:href="#ArialMT-4d" x="72.216797"/>
      <use xlink:href="#ArialMT-33" x="155.517578"/>
     </g>
    </g>
   </g>
   <g id="legend_2">
    <g id="patch_8">
     <path d="M 344.046563 302.584 
L 407.72 302.584 
Q 409.72 302.584 409.72 300.584 
L 409.72 229.028375 
Q 409.72 227.028375 407.72 227.028375 
L 344.046563 227.028375 
Q 342.046563 227.028375 342.046563 229.028375 
L 342.046563 300.584 
Q 342.046563 302.584 344.046563 302.584 
z
" style="fill: #ffffff; opacity: 0.8; stroke: #cccccc; stroke-linejoin: miter"/>
    </g>
    <g id="text_22">
     <!-- Data -->
     <g style="fill: #262626" transform="translate(363.210156 239.61775) scale(0.12 -0.12)">
      <defs>
       <path id="ArialMT-61" d="M 2588 409 
Q 2275 144 1986 34 
Q 1697 -75 1366 -75 
Q 819 -75 525 192 
Q 231 459 231 875 
Q 231 1119 342 1320 
Q 453 1522 633 1644 
Q 813 1766 1038 1828 
Q 1203 1872 1538 1913 
Q 2219 1994 2541 2106 
Q 2544 2222 2544 2253 
Q 2544 2597 2384 2738 
Q 2169 2928 1744 2928 
Q 1347 2928 1158 2789 
Q 969 2650 878 2297 
L 328 2372 
Q 403 2725 575 2942 
Q 747 3159 1072 3276 
Q 1397 3394 1825 3394 
Q 2250 3394 2515 3294 
Q 2781 3194 2906 3042 
Q 3031 2891 3081 2659 
Q 3109 2516 3109 2141 
L 3109 1391 
Q 3109 606 3145 398 
Q 3181 191 3288 0 
L 2700 0 
Q 2613 175 2588 409 
z
M 2541 1666 
Q 2234 1541 1622 1453 
Q 1275 1403 1131 1340 
Q 988 1278 909 1158 
Q 831 1038 831 891 
Q 831 666 1001 516 
Q 1172 366 1500 366 
Q 1825 366 2078 508 
Q 2331 650 2450 897 
Q 2541 1088 2541 1459 
L 2541 1666 
z
" transform="scale(0.015625)"/>
       <path id="ArialMT-74" d="M 1650 503 
L 1731 6 
Q 1494 -44 1306 -44 
Q 1000 -44 831 53 
Q 663 150 594 308 
Q 525 466 525 972 
L 525 2881 
L 113 2881 
L 113 3319 
L 525 3319 
L 525 4141 
L 1084 4478 
L 1084 3319 
L 1650 3319 
L 1650 2881 
L 1084 2881 
L 1084 941 
Q 1084 700 1114 631 
Q 1144 563 1211 522 
Q 1278 481 1403 481 
Q 1497 481 1650 503 
z
" transform="scale(0.015625)"/>
      </defs>
      <use xlink:href="#ArialMT-44"/>
      <use xlink:href="#ArialMT-61" x="72.216797"/>
      <use xlink:href="#ArialMT-74" x="127.832031"/>
      <use xlink:href="#ArialMT-61" x="155.615234"/>
     </g>
    </g>
    <g id="LineCollection_9">
     <path d="M 351.046563 250.660562 
L 361.046563 250.660562 
" style="fill: none; stroke: #fdbf5c; stroke-width: 1.5"/>
    </g>
    <g id="LineCollection_10">
     <path d="M 356.046563 255.660562 
L 356.046563 245.660562 
" style="fill: none; stroke: #fdbf5c; stroke-width: 1.5"/>
    </g>
    <g id="line2d_116">
     <g>
      <use xlink:href="#mf6a783f8da" x="351.046563" y="250.660562" style="fill: #fdbf5c; stroke: #fdbf5c"/>
     </g>
    </g>
    <g id="line2d_117">
     <g>
      <use xlink:href="#mf6a783f8da" x="361.046563" y="250.660562" style="fill: #fdbf5c; stroke: #fdbf5c"/>
     </g>
    </g>
    <g id="line2d_118">
     <g>
      <use xlink:href="#m03e319415b" x="356.046563" y="255.660562" style="fill: #fdbf5c; stroke: #fdbf5c"/>
     </g>
    </g>
    <g id="line2d_119">
     <g>
      <use xlink:href="#m03e319415b" x="356.046563" y="245.660562" style="fill: #fdbf5c; stroke: #fdbf5c"/>
     </g>
    </g>
    <g id="line2d_120"/>
    <g id="line2d_121"/>
    <g id="text_23">
     <!-- MW -->
     <g style="fill: #262626" transform="translate(374.046563 254.160562) scale(0.1 -0.1)">
      <defs>
       <path id="ArialMT-57" d="M 1294 0 
L 78 4581 
L 700 4581 
L 1397 1578 
Q 1509 1106 1591 641 
Q 1766 1375 1797 1488 
L 2669 4581 
L 3400 4581 
L 4056 2263 
Q 4303 1400 4413 641 
Q 4500 1075 4641 1638 
L 5359 4581 
L 5969 4581 
L 4713 0 
L 4128 0 
L 3163 3491 
Q 3041 3928 3019 4028 
Q 2947 3713 2884 3491 
L 1913 0 
L 1294 0 
z
" transform="scale(0.015625)"/>
      </defs>
      <use xlink:href="#ArialMT-4d"/>
      <use xlink:href="#ArialMT-57" x="83.300781"/>
     </g>
    </g>
    <g id="LineCollection_11">
     <path d="M 351.046563 264.805875 
L 361.046563 264.805875 
" style="fill: none; stroke: #1d3e40; stroke-width: 1.5"/>
    </g>
    <g id="LineCollection_12">
     <path d="M 356.046563 269.805875 
L 356.046563 259.805875 
" style="fill: none; stroke: #1d3e40; stroke-width: 1.5"/>
    </g>
    <g id="line2d_122">
     <g>
      <use xlink:href="#m4b55dffdb6" x="351.046563" y="264.805875" style="fill: #1d3e40; stroke: #1d3e40"/>
     </g>
    </g>
    <g id="line2d_123">
     <g>
      <use xlink:href="#m4b55dffdb6" x="361.046563" y="264.805875" style="fill: #1d3e40; stroke: #1d3e40"/>
     </g>
    </g>
    <g id="line2d_124">
     <g>
      <use xlink:href="#m105dc53eb1" x="356.046563" y="269.805875" style="fill: #1d3e40; stroke: #1d3e40"/>
     </g>
    </g>
    <g id="line2d_125">
     <g>
      <use xlink:href="#m105dc53eb1" x="356.046563" y="259.805875" style="fill: #1d3e40; stroke: #1d3e40"/>
     </g>
    </g>
    <g id="line2d_126"/>
    <g id="line2d_127"/>
    <g id="text_24">
     <!-- Dwarf -->
     <g style="fill: #262626" transform="translate(374.046563 268.305875) scale(0.1 -0.1)">
      <defs>
       <path id="ArialMT-77" d="M 1034 0 
L 19 3319 
L 600 3319 
L 1128 1403 
L 1325 691 
Q 1338 744 1497 1375 
L 2025 3319 
L 2603 3319 
L 3100 1394 
L 3266 759 
L 3456 1400 
L 4025 3319 
L 4572 3319 
L 3534 0 
L 2950 0 
L 2422 1988 
L 2294 2553 
L 1622 0 
L 1034 0 
z
" transform="scale(0.015625)"/>
       <path id="ArialMT-72" d="M 416 0 
L 416 3319 
L 922 3319 
L 922 2816 
Q 1116 3169 1280 3281 
Q 1444 3394 1641 3394 
Q 1925 3394 2219 3213 
L 2025 2691 
Q 1819 2813 1613 2813 
Q 1428 2813 1281 2702 
Q 1134 2591 1072 2394 
Q 978 2094 978 1738 
L 978 0 
L 416 0 
z
" transform="scale(0.015625)"/>
       <path id="ArialMT-66" d="M 556 0 
L 556 2881 
L 59 2881 
L 59 3319 
L 556 3319 
L 556 3672 
Q 556 4006 616 4169 
Q 697 4388 901 4523 
Q 1106 4659 1475 4659 
Q 1713 4659 2000 4603 
L 1916 4113 
Q 1741 4144 1584 4144 
Q 1328 4144 1222 4034 
Q 1116 3925 1116 3625 
L 1116 3319 
L 1763 3319 
L 1763 2881 
L 1116 2881 
L 1116 0 
L 556 0 
z
" transform="scale(0.015625)"/>
      </defs>
      <use xlink:href="#ArialMT-44"/>
      <use xlink:href="#ArialMT-77" x="72.216797"/>
      <use xlink:href="#ArialMT-61" x="144.433594"/>
      <use xlink:href="#ArialMT-72" x="200.048828"/>
      <use xlink:href="#ArialMT-66" x="233.349609"/>
     </g>
    </g>
    <g id="LineCollection_13">
     <path d="M 351.046563 278.951187 
L 361.046563 278.951187 
" style="fill: none; stroke: #1d24a4; stroke-width: 1.5"/>
    </g>
    <g id="LineCollection_14">
     <path d="M 356.046563 283.951187 
L 356.046563 273.951187 
" style="fill: none; stroke: #1d24a4; stroke-width: 1.5"/>
    </g>
    <g id="line2d_128">
     <g>
      <use xlink:href="#m1284f2a922" x="351.046563" y="278.951187" style="fill: #1d24a4; stroke: #1d24a4"/>
     </g>
    </g>
    <g id="line2d_129">
     <g>
      <use xlink:href="#m1284f2a922" x="361.046563" y="278.951187" style="fill: #1d24a4; stroke: #1d24a4"/>
     </g>
    </g>
    <g id="line2d_130">
     <g>
      <use xlink:href="#maf0a2e7d34" x="356.046563" y="283.951187" style="fill: #1d24a4; stroke: #1d24a4"/>
     </g>
    </g>
    <g id="line2d_131">
     <g>
      <use xlink:href="#maf0a2e7d34" x="356.046563" y="273.951187" style="fill: #1d24a4; stroke: #1d24a4"/>
     </g>
    </g>
    <g id="line2d_132"/>
    <g id="line2d_133"/>
    <g id="text_25">
     <!-- LSB -->
     <g style="fill: #262626" transform="translate(374.046563 282.451187) scale(0.1 -0.1)">
      <defs>
       <path id="ArialMT-4c" d="M 469 0 
L 469 4581 
L 1075 4581 
L 1075 541 
L 3331 541 
L 3331 0 
L 469 0 
z
" transform="scale(0.015625)"/>
       <path id="ArialMT-53" d="M 288 1472 
L 859 1522 
Q 900 1178 1048 958 
Q 1197 738 1509 602 
Q 1822 466 2213 466 
Q 2559 466 2825 569 
Q 3091 672 3220 851 
Q 3350 1031 3350 1244 
Q 3350 1459 3225 1620 
Q 3100 1781 2813 1891 
Q 2628 1963 1997 2114 
Q 1366 2266 1113 2400 
Q 784 2572 623 2826 
Q 463 3081 463 3397 
Q 463 3744 659 4045 
Q 856 4347 1234 4503 
Q 1613 4659 2075 4659 
Q 2584 4659 2973 4495 
Q 3363 4331 3572 4012 
Q 3781 3694 3797 3291 
L 3216 3247 
Q 3169 3681 2898 3903 
Q 2628 4125 2100 4125 
Q 1550 4125 1298 3923 
Q 1047 3722 1047 3438 
Q 1047 3191 1225 3031 
Q 1400 2872 2139 2705 
Q 2878 2538 3153 2413 
Q 3553 2228 3743 1945 
Q 3934 1663 3934 1294 
Q 3934 928 3725 604 
Q 3516 281 3123 101 
Q 2731 -78 2241 -78 
Q 1619 -78 1198 103 
Q 778 284 539 648 
Q 300 1013 288 1472 
z
" transform="scale(0.015625)"/>
       <path id="ArialMT-42" d="M 469 0 
L 469 4581 
L 2188 4581 
Q 2713 4581 3030 4442 
Q 3347 4303 3526 4014 
Q 3706 3725 3706 3409 
Q 3706 3116 3547 2856 
Q 3388 2597 3066 2438 
Q 3481 2316 3704 2022 
Q 3928 1728 3928 1328 
Q 3928 1006 3792 729 
Q 3656 453 3456 303 
Q 3256 153 2954 76 
Q 2653 0 2216 0 
L 469 0 
z
M 1075 2656 
L 2066 2656 
Q 2469 2656 2644 2709 
Q 2875 2778 2992 2937 
Q 3109 3097 3109 3338 
Q 3109 3566 3000 3739 
Q 2891 3913 2687 3977 
Q 2484 4041 1991 4041 
L 1075 4041 
L 1075 2656 
z
M 1075 541 
L 2216 541 
Q 2509 541 2628 563 
Q 2838 600 2978 687 
Q 3119 775 3209 942 
Q 3300 1109 3300 1328 
Q 3300 1584 3169 1773 
Q 3038 1963 2805 2039 
Q 2572 2116 2134 2116 
L 1075 2116 
L 1075 541 
z
" transform="scale(0.015625)"/>
      </defs>
      <use xlink:href="#ArialMT-4c"/>
      <use xlink:href="#ArialMT-53" x="55.615234"/>
      <use xlink:href="#ArialMT-42" x="122.314453"/>
     </g>
    </g>
    <g id="LineCollection_15">
     <path d="M 351.046563 293.0965 
L 361.046563 293.0965 
" style="fill: none; stroke: #565a5c; stroke-width: 1.5"/>
    </g>
    <g id="LineCollection_16">
     <path d="M 356.046563 298.0965 
L 356.046563 288.0965 
" style="fill: none; stroke: #565a5c; stroke-width: 1.5"/>
    </g>
    <g id="line2d_134">
     <g>
      <use xlink:href="#md42d6fb94c" x="351.046563" y="293.0965" style="fill: #565a5c; stroke: #565a5c"/>
     </g>
    </g>
    <g id="line2d_135">
     <g>
      <use xlink:href="#md42d6fb94c" x="361.046563" y="293.0965" style="fill: #565a5c; stroke: #565a5c"/>
     </g>
    </g>
    <g id="line2d_136">
     <g>
      <use xlink:href="#m8da4d54ed5" x="356.046563" y="298.0965" style="fill: #565a5c; stroke: #565a5c"/>
     </g>
    </g>
    <g id="line2d_137">
     <g>
      <use xlink:href="#m8da4d54ed5" x="356.046563" y="288.0965" style="fill: #565a5c; stroke: #565a5c"/>
     </g>
    </g>
    <g id="line2d_138"/>
    <g id="line2d_139"/>
    <g id="text_26">
     <!-- Cluster -->
     <g style="fill: #262626" transform="translate(374.046563 296.5965) scale(0.1 -0.1)">
      <defs>
       <path id="ArialMT-43" d="M 3763 1606 
L 4369 1453 
Q 4178 706 3683 314 
Q 3188 -78 2472 -78 
Q 1731 -78 1267 223 
Q 803 525 561 1097 
Q 319 1669 319 2325 
Q 319 3041 592 3573 
Q 866 4106 1370 4382 
Q 1875 4659 2481 4659 
Q 3169 4659 3637 4309 
Q 4106 3959 4291 3325 
L 3694 3184 
Q 3534 3684 3231 3912 
Q 2928 4141 2469 4141 
Q 1941 4141 1586 3887 
Q 1231 3634 1087 3207 
Q 944 2781 944 2328 
Q 944 1744 1114 1308 
Q 1284 872 1643 656 
Q 2003 441 2422 441 
Q 2931 441 3284 734 
Q 3638 1028 3763 1606 
z
" transform="scale(0.015625)"/>
       <path id="ArialMT-75" d="M 2597 0 
L 2597 488 
Q 2209 -75 1544 -75 
Q 1250 -75 995 37 
Q 741 150 617 320 
Q 494 491 444 738 
Q 409 903 409 1263 
L 409 3319 
L 972 3319 
L 972 1478 
Q 972 1038 1006 884 
Q 1059 663 1231 536 
Q 1403 409 1656 409 
Q 1909 409 2131 539 
Q 2353 669 2445 892 
Q 2538 1116 2538 1541 
L 2538 3319 
L 3100 3319 
L 3100 0 
L 2597 0 
z
" transform="scale(0.015625)"/>
      </defs>
      <use xlink:href="#ArialMT-43"/>
      <use xlink:href="#ArialMT-6c" x="72.216797"/>
      <use xlink:href="#ArialMT-75" x="94.433594"/>
      <use xlink:href="#ArialMT-73" x="150.048828"/>
      <use xlink:href="#ArialMT-74" x="200.048828"/>
      <use xlink:href="#ArialMT-65" x="227.832031"/>
      <use xlink:href="#ArialMT-72" x="283.447266"/>
     </g>
    </g>
   </g>
  </g>
 </g>
 <defs>
  <clipPath id="p5101f69643">
   <rect x="57.6" y="41.472" width="357.12" height="266.112"/>
  </clipPath>
 </defs>
</svg>
